<?xml version="1.0" standalone="no"?>
<!DOCTYPE svg PUBLIC "-//W3C//DTD SVG 20010904//EN"
 "http://www.w3.org/TR/2001/REC-SVG-20010904/DTD/svg10.dtd">
<svg version="1.0" xmlns="http://www.w3.org/2000/svg"
 width="1024.000000pt" height="1024.000000pt" viewBox="0 0 1024.000000 1024.000000"
 preserveAspectRatio="xMidYMid meet">

<g transform="translate(0.000000,1024.000000) scale(0.100000,-0.100000)"
fill="#000000" stroke="none">
<path d="M0 9418 c0 -453 4 -829 8 -836 6 -8 12 -1 20 24 9 32 9 35 -6 29 -14
-5 -15 -4 -4 7 7 7 18 13 25 13 8 0 11 18 10 58 -2 36 1 56 7 52 6 -4 7 -11 4
-17 -4 -6 -2 -8 4 -5 5 4 9 26 7 50 -2 23 -1 36 2 30 7 -20 19 -15 20 7 1 11
-2 18 -8 15 -5 -4 -9 -1 -9 4 0 15 11 14 30 -4 16 -14 17 -14 13 9 -3 14 -8
25 -12 24 -22 -2 -41 4 -41 13 0 6 7 9 15 5 8 -3 15 -1 15 4 0 5 12 17 28 25
15 9 19 14 10 11 -13 -4 -17 0 -15 12 1 9 7 18 12 19 6 0 9 -3 7 -9 -1 -5 2
-7 8 -3 6 3 7 11 4 17 -5 7 -2 9 7 6 11 -4 14 3 13 28 -1 19 2 34 7 34 6 0 9
-7 7 -16 -2 -10 3 -19 10 -21 16 -6 15 22 -2 36 -14 12 -10 61 6 61 5 0 6 -4
3 -10 -3 -5 -1 -10 4 -10 6 0 11 11 11 25 0 13 8 29 18 35 12 8 13 13 5 16
-22 10 -14 22 19 29 l32 7 -25 15 -24 14 28 -4 c31 -5 33 -2 12 20 -12 11 -19
12 -29 4 -10 -9 -15 -8 -19 2 -5 14 29 17 50 4 6 -4 14 -3 18 3 4 6 11 7 17 4
7 -5 8 -2 4 5 -5 7 -14 10 -22 7 -8 -3 -14 1 -14 10 0 8 5 12 10 9 6 -3 10 0
10 9 0 8 -6 17 -12 19 -7 3 2 6 21 6 25 1 32 5 27 16 -3 8 -1 15 3 15 5 0 11
-4 13 -9 2 -5 9 -3 16 5 11 12 9 14 -7 14 -11 0 -22 4 -26 9 -3 6 4 8 15 6 12
-2 24 3 30 16 7 12 7 19 1 19 -5 0 -7 10 -5 23 3 12 6 27 6 34 1 7 5 10 11 6
5 -3 7 -14 4 -24 -3 -10 -1 -21 3 -24 5 -3 10 9 12 27 2 25 7 32 21 30 10 -2
17 3 17 13 0 8 6 15 13 15 7 0 4 7 -7 15 -19 14 -19 15 7 15 15 0 27 5 27 11
0 5 -3 8 -8 5 -4 -2 -15 1 -24 8 -16 12 -15 14 9 25 23 11 25 10 13 -3 -10
-13 -10 -16 4 -16 9 0 16 4 16 9 0 5 9 13 20 16 11 4 17 11 14 17 -5 7 -1 9 9
5 11 -4 14 -2 10 9 -3 9 0 14 8 12 9 -2 13 4 11 16 -3 17 -1 18 11 7 12 -9 17
-9 23 0 5 8 3 9 -6 4 -10 -6 -12 -4 -7 9 4 10 3 15 -3 11 -6 -3 -10 -2 -10 4
0 12 37 24 50 16 5 -3 10 -1 10 4 0 6 -8 11 -17 11 -27 1 26 29 55 30 12 0 22
4 22 9 0 5 -9 7 -20 4 -11 -3 -20 0 -20 6 0 6 10 11 23 11 l22 1 -23 19 c-13
11 -18 21 -12 25 5 3 10 0 11 -7 0 -7 5 -3 11 9 6 12 20 24 32 27 17 5 18 8 6
15 -22 15 -5 24 19 11 14 -7 21 -7 21 0 0 5 -5 10 -10 10 -6 0 -5 6 2 14 7 8
16 12 20 10 4 -2 9 0 13 6 3 5 -1 10 -9 10 -9 0 -16 5 -16 10 0 6 3 9 8 9 24
-4 42 3 42 17 0 11 5 14 16 10 12 -4 14 -1 9 14 -4 14 -2 20 7 18 8 -2 12 5
10 17 l-4 20 16 -20 c16 -20 16 -20 22 3 5 18 9 20 20 11 8 -7 17 -9 21 -5 3
3 1 6 -5 6 -7 0 -12 5 -12 10 0 6 11 10 25 10 14 0 25 4 25 9 0 6 -12 6 -30 1
-18 -5 -32 -5 -36 1 -3 5 0 8 7 7 7 -2 18 8 25 20 7 15 14 20 18 13 4 -6 18
-11 32 -11 17 0 24 5 24 19 0 29 21 37 38 15 15 -20 15 -16 -5 33 -4 11 -3 14
5 9 8 -5 12 2 12 22 0 27 3 30 30 28 17 0 30 -6 30 -13 0 -7 4 -13 8 -13 4 0
8 9 8 20 0 20 -7 20 -573 20 l-573 0 0 -822z m1030 747 c-7 -8 -18 -15 -24
-14 -7 0 -6 2 2 6 6 2 10 9 6 14 -3 5 2 9 12 9 13 0 14 -3 4 -15z m-25 -45
c-3 -5 -13 -10 -21 -10 -8 0 -12 5 -9 10 3 6 13 10 21 10 8 0 12 -4 9 -10z
m-120 -50 c3 -5 1 -10 -4 -10 -6 0 -11 5 -11 10 0 6 2 10 4 10 3 0 8 -4 11
-10z m-65 -106 c0 -2 -7 -4 -15 -4 -8 0 -15 4 -15 10 0 5 7 7 15 4 8 -4 15 -8
15 -10z m-100 -94 c0 -5 -5 -10 -11 -10 -5 0 -7 5 -4 10 3 6 8 10 11 10 2 0 4
-4 4 -10z m-146 -216 c3 -8 2 -12 -4 -9 -6 3 -10 10 -10 16 0 14 7 11 14 -7z
m-47 -8 c-10 -8 -15 -20 -11 -30 5 -12 2 -15 -10 -10 -9 3 -13 11 -9 18 13 24
26 36 37 36 6 0 3 -7 -7 -14z m-82 -136 c3 -5 -1 -10 -9 -10 -9 0 -16 5 -16
10 0 6 4 10 9 10 6 0 13 -4 16 -10z m-69 -118 c-9 -8 -26 10 -26 26 1 15 2 15
15 -2 8 -11 13 -21 11 -24z m-166 -272 c0 -5 -4 -10 -10 -10 -5 0 -10 5 -10
10 0 6 5 10 10 10 6 0 10 -4 10 -10z m-60 -70 c0 -5 -4 -10 -10 -10 -5 0 -10
5 -10 10 0 6 5 10 10 10 6 0 10 -4 10 -10z m-40 -110 c0 -5 -5 -10 -11 -10 -5
0 -7 5 -4 10 3 6 8 10 11 10 2 0 4 -4 4 -10z m-23 -26 c-3 -3 -12 -4 -19 -1
-8 3 -5 6 6 6 11 1 17 -2 13 -5z"/>
<path d="M7633 10229 c9 -5 17 -17 17 -24 0 -8 5 -15 10 -15 6 0 10 -7 10 -15
0 -8 7 -15 16 -15 9 0 27 -12 40 -27 19 -22 21 -29 9 -31 -8 -2 -15 -8 -15
-14 0 -6 10 -8 25 -4 19 5 23 3 19 -9 -5 -11 3 -17 25 -21 17 -4 31 -11 31
-16 0 -5 -4 -7 -9 -3 -5 3 -12 1 -16 -5 -3 -5 3 -10 13 -10 15 0 19 -5 15 -19
-3 -10 1 -22 8 -26 8 -5 10 -4 5 3 -4 7 -2 20 3 29 9 16 10 14 11 -9 0 -19 5
-28 16 -28 11 0 14 -6 9 -20 -4 -11 -2 -20 4 -20 6 0 11 -8 11 -17 0 -15 2
-16 10 -3 9 13 10 13 11 0 1 -8 1 -18 0 -23 0 -4 5 -6 11 -5 8 2 12 -6 12 -20
-1 -16 3 -22 13 -18 12 5 13 -2 8 -38 -4 -25 -2 -52 4 -64 6 -10 7 -23 3 -27
-7 -6 -8 -10 -11 -36 0 -5 -5 -8 -10 -5 -5 4 -7 -3 -4 -14 4 -14 0 -20 -11
-20 -9 0 -16 -7 -16 -15 0 -8 -7 -15 -15 -15 -8 0 -15 -7 -15 -15 0 -9 -7 -18
-15 -21 -8 -4 -15 -16 -15 -28 0 -17 -2 -18 -10 -6 -8 13 -10 13 -10 -1 0 -9
-11 -28 -24 -42 -13 -14 -21 -28 -19 -31 3 -3 -2 -8 -11 -12 -9 -3 -13 -10
-10 -15 3 -5 0 -9 -5 -9 -6 0 -11 -7 -11 -15 0 -8 -4 -15 -10 -15 -5 0 -10 -6
-10 -14 0 -7 -11 -25 -24 -39 -13 -14 -26 -37 -30 -51 -3 -14 -11 -26 -16 -26
-6 0 -10 -6 -10 -14 0 -8 -4 -16 -9 -18 -6 -1 -16 -25 -23 -53 -7 -27 -15 -52
-18 -55 -9 -8 -50 -223 -50 -262 0 -24 -5 -38 -12 -38 -10 0 -10 -2 -1 -8 13
-8 13 -115 0 -128 -4 -4 -2 -13 4 -21 6 -7 7 -13 2 -13 -5 0 -9 -30 -10 -67 0
-38 -4 -106 -8 -153 -5 -47 -9 -119 -9 -160 -1 -41 -5 -78 -11 -82 -6 -5 -6
-8 1 -8 8 0 12 -33 12 -102 0 -57 1 -107 2 -113 2 -5 0 -18 -5 -28 -4 -9 -3
-35 3 -57 5 -22 7 -40 3 -40 -4 0 -7 -17 -5 -37 2 -43 4 -177 2 -208 0 -11 3
-96 7 -190 4 -93 8 -208 9 -255 1 -47 6 -91 10 -98 4 -7 3 -12 -2 -12 -14 0
-5 -556 12 -695 1 -11 -2 -26 -7 -32 -6 -9 -5 -13 3 -13 10 0 10 -3 0 -15 -8
-10 -10 -27 -4 -52 4 -21 8 -55 8 -75 0 -21 2 -38 6 -38 3 0 6 -8 6 -17 3 -53
45 -178 57 -167 4 4 8 -2 8 -14 1 -12 2 -30 2 -39 1 -10 7 -22 14 -26 7 -4 13
-14 13 -20 0 -7 9 -30 19 -51 11 -21 17 -44 14 -52 -3 -8 0 -14 6 -14 6 0 11
-9 11 -21 0 -11 5 -17 10 -14 6 3 10 -1 10 -9 0 -8 8 -20 18 -25 9 -6 13 -11
9 -11 -5 0 3 -14 17 -31 14 -17 26 -37 26 -45 0 -8 6 -14 14 -14 8 0 18 -10
22 -22 4 -13 20 -40 36 -60 16 -21 26 -38 21 -38 -4 -1 3 -10 16 -20 14 -12
18 -20 10 -21 -8 0 -4 -4 9 -9 12 -5 22 -16 22 -25 0 -8 4 -15 9 -15 5 0 13
-10 16 -21 6 -17 9 -19 16 -8 8 12 11 12 19 -1 5 -8 8 -21 5 -27 -2 -8 4 -13
15 -13 11 0 20 -4 20 -8 0 -5 10 -19 23 -32 12 -14 22 -29 22 -35 1 -5 6 -9
13 -8 7 2 12 -2 12 -7 0 -6 6 -10 14 -10 8 0 16 -7 20 -15 3 -8 12 -15 20 -15
10 0 13 -6 10 -15 -4 -9 0 -15 10 -15 9 0 16 -4 16 -8 0 -5 11 -14 24 -20 40
-18 115 -76 115 -89 1 -7 10 -13 21 -13 11 0 20 -7 20 -15 0 -8 5 -15 11 -15
5 0 7 5 4 10 -3 6 -2 10 3 10 5 0 12 -9 15 -20 3 -11 13 -20 22 -20 15 0 15
-3 5 -16 -8 -8 -9 -14 -4 -13 17 3 34 -1 33 -8 -1 -5 2 -19 6 -31 6 -18 10
-20 16 -10 7 10 9 9 9 -3 0 -9 7 -22 15 -29 8 -7 13 -16 10 -20 -3 -5 -1 -11
5 -15 6 -4 7 -11 4 -17 -4 -6 -3 -8 2 -5 6 3 16 2 24 -3 12 -7 12 -10 -3 -16
-9 -3 -17 -14 -17 -23 0 -9 3 -12 8 -6 4 6 13 11 21 13 11 2 12 0 4 -10 -16
-21 -24 -50 -12 -43 6 4 13 -2 16 -13 3 -13 11 -18 19 -15 8 3 14 0 14 -7 0
-6 -4 -9 -9 -5 -5 3 -12 1 -15 -4 -3 -5 1 -12 10 -15 10 -4 14 -14 11 -26 -3
-11 -1 -18 4 -14 5 3 9 -4 9 -15 0 -12 5 -21 10 -21 6 0 10 -5 10 -12 0 -6 -3
-8 -7 -4 -4 3 -13 -4 -20 -16 -12 -22 -12 -21 -7 10 4 20 3 32 -5 32 -6 0 -10
-3 -10 -7 3 -19 -3 -47 -8 -35 -2 6 -9 10 -14 6 -5 -3 -9 1 -9 9 0 13 -20 27
-36 27 -10 0 41 -65 79 -102 22 -21 46 -38 53 -38 8 0 14 -6 14 -12 0 -28 145
-163 167 -156 4 2 19 -5 33 -15 13 -9 21 -17 16 -17 -4 0 7 -12 26 -27 18 -15
76 -68 129 -117 254 -241 221 -214 383 -317 84 -53 109 -64 160 -70 56 -7 64
-11 100 -51 48 -54 73 -103 82 -159 6 -36 20 -58 78 -120 145 -156 178 -199
193 -250 10 -34 31 -68 68 -108 71 -75 78 -107 78 -336 0 -231 -9 -277 -72
-352 -63 -76 -72 -94 -81 -168 -7 -59 -12 -67 -101 -176 -52 -63 -111 -137
-131 -165 -38 -52 -88 -85 -186 -123 l-53 -21 6 21 c6 19 5 21 -16 15 -13 -4
-42 -11 -64 -16 -22 -4 -60 -15 -85 -24 -24 -9 -50 -14 -58 -11 -24 9 -135
-26 -171 -54 -18 -14 -44 -34 -57 -44 -25 -20 -137 -47 -189 -47 -50 0 -106
23 -322 128 -93 45 -108 57 -254 203 -85 85 -174 176 -197 204 -33 39 -47 49
-68 47 -41 -3 -54 14 -54 73 0 54 16 75 39 52 6 -6 11 -7 11 -1 0 6 -5 15 -11
21 -6 6 -9 19 -7 29 3 15 7 13 21 -14 13 -24 24 -32 45 -32 29 -1 26 -5 -25
-37 -14 -9 -9 -9 24 -1 33 8 45 7 56 -3 53 -52 77 -68 77 -54 0 36 88 -14 141
-81 29 -37 99 -166 99 -183 0 -18 54 -104 58 -92 3 8 8 7 19 -6 10 -13 16 -14
19 -6 4 9 22 5 62 -16 31 -15 73 -34 92 -41 19 -7 42 -19 50 -26 14 -11 78
-30 92 -26 4 1 5 -7 3 -18 -2 -11 1 -20 6 -20 6 0 7 -5 3 -11 -4 -7 1 -7 16 1
39 21 136 13 155 -13 10 -14 16 -12 47 21 55 58 63 90 63 242 -1 116 -6 160
-39 320 -20 101 -48 209 -61 240 -13 31 -22 66 -19 77 3 12 -9 49 -29 89 -30
60 -69 157 -174 426 -35 91 -85 165 -148 218 -17 14 -12 5 12 -20 56 -60 86
-128 78 -177 -10 -57 -15 -73 -25 -70 -4 1 -9 -2 -10 -8 -1 -5 -11 -21 -21
-34 -11 -13 -19 -28 -19 -34 0 -6 6 -3 13 7 12 16 13 16 14 -3 1 -12 -4 -21
-10 -21 -8 0 -7 -3 2 -9 9 -6 11 -18 6 -41 -5 -24 -10 -29 -16 -19 -5 9 -9 10
-9 2 0 -15 -29 -10 -41 8 -5 8 -9 11 -9 6 0 -4 -13 -1 -28 7 -17 9 -47 13 -80
11 -50 -4 -55 -2 -91 35 -21 22 -35 43 -32 46 3 4 0 4 -6 0 -7 -4 -21 -3 -30
2 -10 6 -62 12 -115 14 -89 4 -99 3 -125 -18 -21 -17 -30 -19 -38 -9 -20 24
-112 54 -200 64 -84 10 -123 16 -135 22 -3 1 -9 3 -15 4 -5 1 -30 7 -55 15
-25 7 -54 13 -65 14 -11 1 -30 7 -41 14 -12 6 -24 8 -28 5 -3 -3 -6 -2 -6 4 0
6 -13 10 -29 9 -17 -1 -28 2 -25 6 3 4 2 8 -3 9 -59 5 -115 34 -111 57 5 25
120 36 233 22 50 -7 135 -15 190 -20 122 -10 186 -20 180 -30 -5 -8 23 -6 47
4 9 4 21 5 27 2 5 -4 12 -2 15 3 3 5 24 8 45 7 38 -2 39 -1 36 26 -5 38 -50
114 -78 132 -34 22 -85 27 -102 9 -35 -35 -113 -33 -226 5 -20 7 -43 11 -50
10 -8 -2 -13 2 -12 9 2 7 -13 15 -32 19 -19 3 -35 11 -35 16 0 6 -8 8 -19 5
-11 -2 -25 3 -35 15 -16 18 -18 18 -33 2 -11 -11 -18 -13 -21 -5 -2 6 -8 9
-13 5 -5 -3 -12 2 -15 11 -6 13 -8 14 -15 3 -7 -11 -9 -11 -9 0 0 40 -56 53
-106 27 -36 -19 -116 -17 -164 3 -19 8 -62 18 -95 23 -33 4 -85 13 -115 19
-30 6 -65 11 -78 11 -31 -1 -69 -30 -81 -63 -13 -36 20 -86 72 -111 l37 -19
-22 -18 c-13 -10 -28 -15 -34 -12 -18 11 -79 87 -136 168 -28 41 -52 74 -55
74 -5 0 2 -13 27 -50 40 -61 63 -104 49 -93 -9 7 -20 9 -24 5 -5 -4 -5 -1 -1
6 8 13 -58 112 -75 112 -5 0 -9 5 -9 11 0 7 -24 48 -53 93 -68 102 -156 261
-278 501 -34 66 -65 122 -70 123 -14 5 -11 40 4 45 6 2 18 -5 25 -17 10 -15
12 -16 8 -3 -3 10 -1 26 5 35 9 14 -5 57 -71 217 -98 236 -114 309 -86 395 24
74 41 96 101 130 53 30 96 42 62 18 -15 -11 -9 -12 32 -10 60 5 128 -16 235
-71 105 -54 183 -128 263 -251 37 -56 70 -105 75 -111 10 -11 -65 173 -87 215
-23 43 -145 147 -214 181 -22 11 -29 18 -18 19 47 1 173 -94 236 -177 20 -27
57 -88 80 -134 54 -104 150 -249 165 -249 6 0 24 7 40 15 16 9 31 13 34 10 8
-8 32 16 32 32 0 24 -138 291 -196 380 -37 56 -81 106 -132 149 -88 75 -132
101 -256 150 -135 54 -197 88 -238 131 -25 25 -89 138 -186 328 -180 350 -251
471 -348 592 -68 84 -202 213 -223 213 -10 0 -22 -73 -22 -135 0 -22 13 -93
30 -157 43 -163 41 -205 -15 -369 -30 -88 -50 -171 -60 -243 -8 -59 -21 -120
-28 -135 -18 -36 -71 -208 -95 -311 -11 -47 -34 -123 -51 -170 -17 -47 -40
-115 -52 -152 -12 -38 -25 -68 -30 -68 -4 0 -8 3 -8 8 0 14 -80 104 -258 290
-99 103 -213 226 -253 273 -41 47 -116 134 -168 193 -71 82 -91 110 -80 116 7
5 18 5 25 -1 13 -11 104 -14 147 -6 16 3 36 14 45 25 9 10 23 17 31 14 9 -3
11 0 6 8 -6 10 -3 12 10 6 15 -5 16 -4 6 8 -10 12 -6 13 26 10 34 -4 36 -3 20
9 -17 14 -16 15 3 20 11 3 18 1 15 -3 -6 -9 33 -25 52 -22 6 2 14 -1 17 -6 3
-5 -11 -8 -32 -7 l-37 3 30 -14 c17 -7 37 -13 46 -14 8 0 19 -4 25 -9 15 -14
125 -52 134 -46 5 3 11 -1 13 -7 4 -10 6 -10 6 -1 1 7 8 10 16 7 18 -7 47 14
39 27 -3 5 0 9 6 9 6 0 9 4 6 9 -4 5 0 12 6 15 7 4 2 4 -12 2 -22 -4 -23 -4
-8 8 16 12 16 14 -3 29 -11 10 -17 22 -13 28 4 6 0 15 -7 20 -12 7 -11 9 1 9
13 0 13 1 0 10 -9 6 -11 10 -3 10 7 0 10 7 7 15 -4 8 -1 15 6 15 6 0 8 5 4 12
-11 18 -12 48 -2 48 4 0 8 11 8 25 0 16 6 25 15 25 9 0 15 6 14 13 -3 27 2 48
10 42 5 -3 12 -1 15 4 4 5 1 13 -4 16 -8 5 -7 12 3 23 22 27 29 55 15 64 -10
6 -10 8 0 8 6 0 12 9 12 20 0 11 5 20 11 20 6 0 9 10 7 22 -2 15 9 35 30 58
18 19 56 69 84 110 29 41 61 84 71 95 11 11 27 32 36 46 9 14 94 102 189 194
178 173 225 225 197 221 -8 -1 -24 -12 -35 -24 -24 -26 -35 -28 -26 -7 4 10
-1 15 -16 15 -16 0 -19 3 -11 11 6 6 9 18 6 25 -3 8 0 14 6 14 6 0 8 6 5 14
-3 7 1 20 8 27 7 8 13 19 14 24 1 19 33 82 48 95 9 7 16 18 16 26 0 7 6 19 14
26 17 17 57 108 48 108 -4 0 -1 4 6 9 22 13 -14 43 -42 35 -23 -8 -33 -8 -56
-1 -50 16 -60 20 -60 28 0 5 -7 9 -16 9 -9 0 -43 27 -75 60 -33 32 -59 56 -59
52 0 -4 -7 2 -16 13 -17 23 -128 94 -194 125 -24 12 -58 20 -73 18 l-29 -3 22
-28 c12 -15 29 -49 36 -74 8 -25 25 -61 39 -78 13 -18 32 -52 41 -76 10 -24
30 -64 45 -89 16 -25 24 -46 19 -48 -5 -2 -6 -11 -3 -20 3 -9 3 -14 -1 -10 -5
4 -18 -5 -31 -19 l-22 -27 -74 13 c-41 7 -85 15 -99 17 -14 3 -86 7 -161 9
-76 2 -146 8 -158 14 -20 11 -20 13 -4 30 10 10 29 21 43 23 14 3 34 9 44 13
15 7 17 5 11 -6 -6 -9 0 -8 19 5 18 11 26 13 21 5 -4 -8 4 0 19 16 14 17 25
33 26 37 0 4 27 17 60 29 75 27 142 83 120 99 -9 7 -35 8 -65 4 -89 -11 -119
-8 -177 19 -32 15 -82 51 -113 81 -49 47 -56 60 -60 100 -3 36 0 46 11 46 9 0
13 3 11 8 -7 10 19 32 28 24 4 -4 6 0 5 8 -4 27 0 41 9 36 12 -8 20 15 17 52
-1 18 1 32 5 32 3 0 6 10 5 23 -1 12 2 24 6 27 4 3 9 17 12 30 4 21 13 62 30
139 1 8 8 17 14 19 7 2 12 12 12 22 0 10 9 20 20 23 12 3 18 1 14 -5 -4 -6 2
-6 14 1 27 14 35 14 26 -1 -6 -10 -5 -10 8 0 13 10 15 9 14 -10 -1 -13 0 -27
3 -33 3 -5 6 -19 7 -30 0 -11 4 -37 8 -58 6 -35 10 -38 31 -33 13 3 27 1 30
-4 4 -6 11 -8 16 -4 6 3 9 -4 8 -18 -5 -59 1 -73 52 -110 48 -35 79 -48 154
-62 29 -5 29 -5 -6 12 l-35 17 112 1 c66 0 118 5 126 11 7 6 29 16 48 21 34
10 33 10 -25 12 -42 1 -54 4 -40 9 18 8 16 10 -15 19 l-35 10 35 2 35 3 -35 6
-35 7 38 7 c20 4 37 12 37 18 0 6 4 7 10 4 5 -3 26 3 47 13 34 18 43 18 88 7
50 -13 50 -13 26 6 -21 17 -21 19 -5 19 18 1 18 1 2 11 -10 5 -15 16 -11 24 3
9 0 22 -7 30 -7 8 -9 15 -5 15 24 0 -89 84 -138 103 -54 20 -74 34 -103 69
-19 23 19 48 91 60 77 13 94 6 180 -70 54 -48 64 -45 40 11 -28 67 -118 149
-145 132 -6 -3 -10 -3 -10 2 0 4 -19 7 -42 7 -24 -1 -49 2 -56 6 -8 3 -37 3
-65 -1 -29 -4 -99 -10 -157 -13 -58 -3 -119 -10 -137 -15 -17 -5 -34 -7 -37
-3 -3 3 -6 0 -6 -8 0 -10 -3 -10 -17 1 -15 13 -15 12 -5 -7 9 -16 8 -21 -3
-21 -8 0 -12 3 -10 7 3 5 -28 6 -59 1 -5 0 -2 -9 5 -18 12 -16 12 -17 -2 -5
-9 7 -25 10 -35 6 -16 -5 -16 -4 -4 5 13 9 13 11 -1 11 -9 0 -20 -7 -23 -16
-6 -17 -26 -10 -26 9 0 7 4 6 11 -3 8 -12 10 -12 7 -1 -4 14 -20 20 -64 25
-22 3 -66 41 -57 50 4 3 1 6 -6 6 -7 0 -9 5 -5 13 6 9 5 9 -7 0 -17 -14 -45
-1 -35 16 5 7 1 9 -8 5 -9 -3 -16 -1 -16 6 0 6 -5 8 -11 5 -6 -4 -13 2 -16 14
-3 11 -14 23 -25 27 -12 3 -17 11 -14 20 3 9 1 12 -4 9 -6 -3 -10 -1 -10 5 0
6 -5 8 -12 4 -10 -6 -10 -4 0 8 10 13 10 17 0 21 -10 4 -10 7 1 15 9 7 10 12
2 16 -6 4 -11 2 -11 -4 0 -6 -5 -8 -11 -4 -8 5 -8 8 0 13 6 4 13 18 16 31 2
12 7 25 9 28 3 2 0 14 -6 26 -10 19 -10 20 6 7 14 -12 16 -12 10 3 -4 10 0 18
10 22 14 5 14 8 3 18 -8 6 -17 20 -21 30 -5 15 -4 16 7 8 10 -8 13 -7 13 7 0
10 -6 17 -12 14 -7 -2 -15 0 -19 6 -3 6 -1 11 5 11 6 0 8 5 4 11 -3 6 0 15 7
20 11 6 8 9 -8 9 -12 0 -25 5 -29 12 -5 7 0 9 14 6 13 -4 20 -2 19 6 -1 6 4
10 11 8 8 -1 11 2 7 8 -3 6 -9 9 -13 6 -4 -2 -16 6 -27 17 l-20 20 23 -12 c18
-10 22 -9 22 3 0 8 -7 19 -16 24 -15 8 -15 10 0 15 18 7 22 27 5 27 -5 0 -7
-6 -3 -12 4 -7 3 -10 -1 -5 -11 9 -14 48 -4 42 4 -3 9 2 13 10 3 8 10 15 16
15 6 0 4 -7 -4 -16 -9 -8 -16 -17 -16 -19 0 -8 30 7 31 16 3 19 5 24 12 36 4
7 15 9 24 6 11 -4 14 -3 9 5 -4 7 -2 12 6 12 9 0 9 3 -2 10 -13 9 -13 10 1 10
8 0 21 -6 28 -12 10 -11 11 -10 5 5 -5 13 -2 16 12 10 12 -4 15 -3 10 5 -4 7
-1 12 9 12 10 0 13 5 9 13 -5 8 -2 8 9 -2 20 -16 23 -25 5 -15 -10 5 -10 3 0
-7 9 -10 15 -11 20 -3 4 6 26 21 50 33 23 12 42 24 42 27 0 3 -4 2 -10 -1 -5
-3 -18 -1 -27 5 -14 8 -14 10 -3 9 35 -3 51 1 44 13 -5 7 -3 8 5 4 7 -5 10
-15 7 -25 -5 -14 -4 -13 8 2 7 9 19 17 27 17 11 0 11 2 -1 10 -12 8 -11 10 7
10 12 0 24 4 27 9 7 10 -33 3 -49 -9 -5 -4 -19 -4 -30 0 -17 6 -16 8 12 14 18
4 35 12 38 16 3 5 17 5 32 -1 23 -8 24 -8 13 6 -7 9 -8 15 -2 15 15 0 9 26
-14 51 -20 24 -3 18 29 -9 11 -10 17 -11 17 -4 0 7 -4 12 -9 12 -5 0 -11 7
-14 14 -4 11 -1 13 10 9 12 -5 14 -3 8 7 -5 9 -4 11 4 6 6 -4 9 -12 6 -17 -4
-5 2 -9 12 -9 11 0 25 -6 33 -12 11 -10 11 -9 0 7 -8 11 -19 23 -25 27 -7 5
-7 8 0 9 40 6 54 5 49 -2 -3 -5 2 -9 10 -9 9 0 16 -4 16 -10 0 -5 5 -10 11
-10 8 0 8 5 -1 15 -7 8 -11 15 -9 16 34 7 40 6 36 -5 -3 -7 1 -13 9 -13 9 0
13 6 9 15 -4 12 -2 12 8 4 8 -7 18 -8 23 -4 4 4 2 -1 -6 -11 -12 -17 -11 -18
13 -12 22 6 27 4 27 -11 0 -17 1 -16 16 2 14 17 15 17 10 1 -3 -10 -2 -16 3
-13 9 6 28 -12 31 -29 1 -5 4 -12 7 -15 4 -3 3 1 -1 8 -4 6 -3 12 3 12 6 0 8
6 5 14 -3 8 -1 17 4 20 5 3 8 -5 7 -18 -3 -23 -1 -24 26 -14 16 5 34 8 40 6
14 -5 21 -38 9 -38 -12 0 -22 17 -13 23 5 2 1 2 -7 -1 -8 -2 -21 -5 -27 -5 -7
0 -13 -4 -13 -9 0 -5 -6 -6 -12 -2 -7 4 0 -7 16 -24 18 -19 40 -32 54 -32 18
0 23 -4 18 -17 -4 -9 -1 -21 6 -26 9 -6 8 -7 -4 -3 -10 3 -18 2 -18 -3 0 -5
10 -11 22 -14 12 -4 19 -9 15 -13 -4 -4 -2 -13 4 -21 12 -14 -1 -18 -17 -5 -5
4 13 -14 39 -40 27 -27 45 -48 41 -48 -5 0 8 -16 27 -36 24 -25 41 -34 56 -31
12 2 21 1 20 -2 -1 -4 8 -19 21 -35 12 -16 22 -24 22 -19 0 5 -5 14 -12 21 -6
6 -9 14 -6 17 8 8 90 -104 84 -114 -3 -4 1 -17 8 -27 10 -13 11 -23 4 -31 -6
-7 -8 -18 -6 -25 3 -7 2 -22 -2 -33 -4 -11 -3 -31 3 -45 5 -14 11 -42 11 -63
1 -33 0 -36 -11 -21 -16 21 -17 10 -2 -17 5 -11 14 -17 18 -15 4 3 13 -7 20
-22 11 -26 11 -26 -5 -7 -16 20 -16 19 -9 -5 19 -63 23 -68 51 -62 20 4 25 2
19 -8 -4 -7 -3 -15 3 -19 7 -4 12 -126 14 -369 l3 -363 26 31 c30 36 59 125
62 189 0 8 9 16 19 19 10 2 18 11 18 18 0 8 5 14 10 14 6 0 10 -11 10 -25 0
-30 16 -33 25 -5 3 11 10 20 15 20 15 0 61 157 58 197 -3 35 -6 38 -33 38 -28
1 -30 3 -33 43 -2 35 0 42 15 42 15 0 16 2 3 10 -8 5 -10 10 -5 10 6 0 5 3 -1
8 -6 4 -21 25 -32 48 -26 50 -23 124 7 202 15 38 21 75 21 137 0 58 4 85 12
85 7 0 6 6 -4 18 -9 9 -13 23 -10 31 3 8 0 11 -7 7 -7 -4 -9 -1 -5 8 3 8 2 21
-2 28 -4 7 -9 21 -10 33 -1 11 -3 25 -4 30 -5 20 0 46 8 42 4 -3 12 1 19 8 10
10 9 14 -3 19 -10 4 -13 2 -8 -6 4 -7 3 -8 -5 -4 -7 5 -8 13 -2 23 6 11 3 27
-10 50 -10 18 -15 33 -11 33 4 0 1 4 -6 9 -7 4 -15 23 -17 41 -3 18 -11 40
-20 50 -8 9 -12 20 -8 24 5 4 1 6 -7 4 -10 -2 -14 3 -12 15 2 11 -6 21 -22 27
-23 9 -96 106 -96 128 0 18 -31 70 -60 100 -16 18 -30 37 -30 43 0 6 -7 8 -16
5 -8 -3 -13 -2 -10 3 3 5 -1 12 -10 15 -8 3 -12 10 -9 16 3 6 -1 7 -9 4 -9 -3
-16 -1 -16 5 0 6 -11 16 -24 23 -40 22 -108 81 -117 103 -7 19 -8 19 -8 1 -1
-18 -4 -17 -31 9 -16 16 -30 25 -30 21 0 -4 -7 0 -16 8 -8 9 -25 16 -36 16
-12 0 -22 8 -25 21 -4 16 -8 17 -14 7 -7 -11 -9 -11 -9 1 0 7 -6 11 -14 8 -10
-4 -13 -1 -10 7 3 8 1 17 -5 21 -6 3 -11 -1 -11 -9 0 -20 -7 -20 -27 -1 -8 8
-18 13 -22 11 -4 -3 -29 15 -56 39 -28 24 -52 42 -54 39 -2 -2 7 -12 20 -23
13 -11 19 -20 12 -21 -17 0 -63 22 -63 30 0 10 -105 72 -158 93 -48 19 -103
22 -119 6 -6 -6 -32 -11 -59 -11 -37 0 -52 5 -65 21 -9 11 -19 18 -21 15 -3
-2 -38 31 -78 75 -40 44 -86 85 -103 91 -62 21 -148 8 -210 -33 -15 -9 -27
-13 -27 -7 0 5 -5 10 -11 10 -5 0 -7 -4 -4 -10 3 -5 -2 -10 -12 -10 -28 0
-184 -68 -208 -90 -12 -11 -26 -20 -31 -20 -5 0 -21 -13 -34 -28 -38 -42 -52
-49 -40 -18 20 53 -19 18 -55 -48 -5 -10 -34 -27 -62 -38 -29 -11 -53 -23 -53
-28 0 -5 7 -7 16 -3 9 3 -1 -12 -22 -34 -51 -51 -95 -107 -115 -143 -9 -16
-19 -27 -22 -24 -3 3 -8 -4 -12 -16 -4 -12 -4 -24 -1 -27 3 -4 6 2 6 12 0 10
3 16 6 12 3 -3 -8 -35 -25 -71 -17 -37 -31 -71 -31 -78 0 -6 -8 -20 -18 -31
-10 -13 -11 -17 -3 -12 11 6 13 4 8 -8 -15 -39 -19 -89 -8 -96 8 -5 9 -25 1
-72 -24 -159 -41 -311 -35 -317 3 -4 10 0 16 8 10 16 9 8 -7 -75 -4 -22 -8
-47 -9 -55 -1 -8 -10 -31 -20 -50 -24 -45 -25 -162 -1 -208 9 -17 17 -49 18
-71 1 -22 5 -38 10 -35 4 3 8 -7 8 -23 0 -22 -2 -25 -10 -13 -8 13 -10 12 -10
-2 0 -10 7 -18 17 -18 15 0 15 -1 0 -18 -10 -10 -17 -22 -17 -27 0 -5 -7 -17
-17 -27 -18 -20 -5 -25 16 -5 11 10 13 9 8 -5 -3 -10 -2 -20 3 -23 6 -3 -6
-22 -24 -41 -61 -63 -59 -92 27 -315 14 -37 33 -116 42 -175 l16 -109 -78 -75
c-89 -86 -186 -190 -177 -190 3 0 -9 -17 -27 -38 -19 -20 -56 -72 -84 -115
-27 -42 -53 -77 -57 -77 -4 0 -8 -5 -8 -10 0 -6 -9 -21 -21 -33 -65 -69 -95
-200 -85 -372 5 -89 3 -115 -9 -132 -13 -19 -13 -21 5 -26 14 -4 20 -14 20
-35 0 -38 -24 -54 -146 -97 -107 -37 -118 -44 -145 -96 -30 -60 -23 -61 36 -3
31 30 62 54 70 54 24 0 16 -13 -30 -50 -60 -48 -97 -130 -94 -207 3 -62 48
-224 65 -230 5 -2 18 3 29 11 18 13 18 16 1 87 -14 60 -15 87 -7 143 5 38 16
75 23 81 7 7 39 22 72 34 l59 22 -7 -48 c-13 -96 -19 -243 -10 -243 15 0 112
39 165 66 27 13 82 36 122 51 79 28 147 72 269 169 43 36 83 62 89 59 5 -4 9
-1 9 5 0 7 6 10 13 7 8 -3 18 -2 23 1 17 13 108 125 123 153 23 40 90 139 95
139 8 0 -18 -86 -37 -119 -19 -36 -54 -173 -64 -252 -7 -63 15 -103 71 -129
39 -17 46 -26 61 -70 9 -28 27 -117 40 -198 29 -183 50 -285 66 -313 51 -95
137 -411 214 -779 20 -96 63 -300 96 -453 34 -153 71 -343 84 -422 14 -78 43
-222 65 -319 22 -97 52 -252 66 -344 13 -92 31 -205 39 -252 18 -114 24 -213
36 -625 12 -433 24 -655 39 -720 19 -91 41 -329 35 -390 -16 -156 -60 -425
-112 -675 -31 -151 -64 -314 -73 -362 l-17 -88 904 0 903 0 0 53 c-1 186 -23
489 -47 662 -23 172 -27 232 -27 430 0 223 9 330 49 620 8 55 19 140 25 190 6
49 18 118 26 153 22 93 28 584 8 670 -8 37 -13 110 -13 180 1 64 -3 135 -9
157 -6 22 -16 93 -22 157 -9 107 -39 292 -75 473 -19 94 -28 161 -22 155 2 -3
51 -88 107 -190 159 -286 300 -495 392 -582 32 -31 45 -48 34 -48 -9 0 -16 -6
-16 -13 0 -8 -9 -22 -20 -32 -19 -18 -20 -17 -20 3 0 12 -3 22 -6 22 -17 0
-46 -24 -59 -50 -24 -46 -19 -89 18 -142 37 -55 51 -61 42 -17 -6 27 -4 31 24
42 17 6 31 14 31 17 0 3 14 28 30 57 29 50 30 51 59 40 27 -10 28 -12 15 -31
-8 -11 -14 -38 -14 -59 0 -33 9 -48 66 -112 37 -41 79 -78 95 -84 20 -7 29
-17 29 -31 0 -73 80 -161 211 -231 110 -59 184 -83 314 -100 122 -15 182 -26
158 -28 -13 0 -26 -1 -30 0 -8 1 -46 -68 -50 -91 -1 -8 -9 -95 -18 -193 -16
-179 -36 -301 -56 -339 -27 -50 -115 -688 -95 -688 4 0 16 4 26 10 15 8 20 4
33 -23 15 -32 17 -52 37 -342 12 -168 16 -194 35 -215 13 -16 33 -108 60 -275
9 -55 20 -117 26 -137 l10 -38 1189 0 1190 0 0 5120 0 5120 -1312 0 c-897 -1
-1307 -4 -1295 -11z m42 -19 c3 -5 1 -10 -4 -10 -6 0 -11 5 -11 10 0 6 2 10 4
10 3 0 8 -4 11 -10z m1055 -280 c154 -14 211 -18 465 -35 127 -8 248 -17 270
-20 22 -2 76 -7 120 -10 44 -3 114 -9 155 -14 41 -5 78 -6 83 -4 4 2 7 -1 7
-6 0 -6 7 -11 15 -11 8 0 15 -5 15 -11 0 -6 9 -9 19 -6 17 4 18 2 9 -13 -7
-10 -18 -16 -25 -13 -7 3 -19 0 -27 -6 -7 -6 -16 -8 -19 -4 -4 3 -7 2 -7 -4 0
-9 -46 -22 -136 -39 -30 -6 -34 -7 -74 -17 -14 -4 -36 -9 -50 -12 -14 -2 -72
-15 -130 -29 -58 -14 -150 -30 -205 -36 -55 -7 -102 -13 -105 -15 -3 -2 -43
-6 -90 -9 -47 -4 -146 -11 -220 -18 -216 -17 -306 -1 -343 61 -19 32 -42 181
-33 216 4 14 15 34 26 45 23 23 106 26 280 10z m205 -404 c22 -4 83 -9 135
-11 336 -17 506 -29 582 -41 20 -3 77 -7 126 -9 49 -2 99 -8 111 -14 12 -7 52
-17 89 -24 l67 -12 0 -45 c0 -45 0 -45 -32 -42 -22 2 -39 -3 -54 -17 -24 -22
-61 -28 -244 -36 -219 -10 -443 -25 -535 -35 -41 -5 -78 -6 -81 -4 -4 2 -9 -3
-13 -11 -3 -9 -12 -12 -23 -8 -16 6 -17 5 -3 -12 8 -10 10 -16 5 -13 -6 4 -17
3 -25 -3 -11 -6 -8 -9 13 -9 15 0 27 -4 27 -9 0 -5 12 -8 28 -7 15 2 32 0 37
-4 6 -5 30 -11 55 -13 126 -14 195 -35 177 -53 -11 -11 -278 -23 -535 -24
l-252 0 -41 -26 c-63 -40 -70 -67 -68 -267 4 -312 25 -534 56 -617 3 -8 7 -20
9 -27 1 -7 9 -34 19 -62 9 -27 14 -60 12 -73 -8 -39 -19 -68 -27 -68 -20 0
-59 -143 -74 -270 -3 -25 -8 -268 -12 -541 -7 -563 -10 -540 71 -578 26 -12
59 -24 73 -26 56 -9 189 -15 195 -9 3 4 1 16 -4 27 -12 21 -1 158 26 347 8 52
21 183 30 290 15 192 30 372 60 701 8 92 15 194 15 228 0 73 19 123 54 146 23
16 35 16 104 5 43 -6 96 -13 118 -14 55 -4 112 -31 125 -60 10 -21 8 -35 -8
-78 -16 -41 -19 -68 -16 -116 3 -35 0 -98 -6 -140 -5 -42 -13 -115 -16 -162
-4 -47 -8 -92 -10 -100 -2 -8 -6 -60 -10 -115 -7 -113 -10 -144 -30 -335 -28
-270 -45 -457 -50 -555 -5 -117 -1 -113 -127 -116 -46 -1 -122 -8 -168 -15
-47 -8 -170 -15 -274 -16 l-189 -3 -17 25 c-16 22 -17 34 -8 100 8 65 16 2262
8 2478 -3 85 10 106 74 123 51 14 65 25 82 65 11 27 11 36 -6 70 -11 21 -22
64 -26 94 -6 50 -4 59 20 87 48 57 88 69 222 67 65 -1 137 -5 159 -8z m-3311
-457 c-6 -10 -39 5 -50 23 -4 7 -3 8 4 4 7 -4 12 -2 12 5 0 8 7 5 20 -6 11
-10 17 -22 14 -26z m-535 -63 c-2 -2 -15 -9 -29 -15 -24 -11 -24 -11 -6 3 16
13 49 24 35 12z m854 -281 l6 -30 -14 30 c-16 34 -21 72 -6 45 5 -8 11 -28 14
-45z m65 -420 c-3 -3 -9 2 -12 12 -6 14 -5 15 5 6 7 -7 10 -15 7 -18z m-2264
-94 c3 -5 -1 -11 -9 -14 -9 -4 -12 -1 -8 9 6 16 10 17 17 5z m1351 -29 c-3 -3
-11 0 -18 7 -9 10 -8 11 6 5 10 -3 15 -9 12 -12z m-1340 -40 c-11 -11 -27 17
-20 35 6 16 8 16 16 -6 5 -13 7 -26 4 -29z m1480 38 c3 -6 -1 -7 -9 -4 -18 7
-21 14 -7 14 6 0 13 -4 16 -10z m385 -170 c0 -5 -5 -10 -11 -10 -5 0 -7 5 -4
10 3 6 8 10 11 10 2 0 4 -4 4 -10z m50 -9 c0 -5 -9 -7 -20 -4 -11 3 -20 7 -20
9 0 2 9 4 20 4 11 0 20 -4 20 -9z m76 -20 c44 -20 62 -38 39 -38 -8 0 -12 4
-9 9 5 8 -17 12 -45 9 -7 -2 -10 2 -6 8 5 10 -14 16 -37 12 -5 0 -8 4 -8 9 0
15 20 12 66 -9z m-1000 -26 l29 -24 -49 24 c-59 30 -64 34 -33 28 13 -3 37
-15 53 -28z m-92 -46 c-3 -5 -10 -7 -15 -3 -5 3 -7 10 -3 15 3 5 10 7 15 3 5
-3 7 -10 3 -15z m76 -19 c28 -39 21 -55 -27 -68 l-38 -10 45 0 c25 0 68 -4 95
-10 47 -11 44 -11 -39 -7 -104 5 -117 13 -93 54 9 16 17 39 17 50 0 30 15 26
40 -9z m903 23 c-7 -2 -19 -2 -25 0 -7 3 -2 5 12 5 14 0 19 -2 13 -5z m114
-48 c0 -8 -4 -12 -9 -9 -4 3 -16 0 -25 -6 -16 -10 -16 -11 2 -5 15 5 17 3 8
-6 -6 -6 -33 -13 -60 -15 -41 -4 -44 -3 -22 6 15 6 32 24 39 40 11 26 14 27
39 19 15 -5 28 -16 28 -24z m4116 -204 c50 -6 85 -15 95 -25 14 -14 16 -71 14
-553 -2 -607 1 -583 -75 -583 -23 0 -86 -3 -139 -7 l-97 -6 -21 34 c-20 32
-21 43 -15 184 3 83 8 321 10 530 2 209 4 383 5 386 0 3 12 19 26 34 23 25 30
27 72 21 26 -4 82 -11 125 -15z m-5407 -15 c22 -4 54 -10 70 -15 16 -4 47 -7
69 -5 91 9 169 7 173 -4 2 -6 10 -8 18 -5 8 3 14 0 14 -6 0 -6 -5 -11 -10 -11
-7 0 -7 -6 0 -20 9 -16 8 -20 -5 -20 -8 0 -14 -4 -13 -9 5 -17 -176 -201 -209
-213 -17 -6 -30 -15 -27 -20 9 -15 -67 3 -86 20 -10 9 -35 30 -54 46 -20 16
-33 33 -30 37 3 5 -2 9 -10 9 -9 0 -16 6 -16 14 0 8 -7 17 -16 20 -9 3 -14 12
-11 19 3 8 1 20 -3 28 -5 7 -5 18 1 25 5 7 8 16 7 20 -4 13 23 74 33 74 5 0 9
6 9 13 0 14 21 15 96 3z m415 -200 c15 9 10 -32 -5 -45 -18 -15 -46 -3 -46 20
0 20 33 44 38 28 2 -5 8 -7 13 -3z m449 -506 c5 -8 7 -19 4 -25 -3 -5 3 0 12
13 19 25 49 29 57 7 9 -21 -42 -59 -59 -44 -9 8 -14 8 -14 1 0 -6 -7 -18 -16
-26 -14 -15 -14 -16 5 -16 12 0 21 5 21 10 0 6 11 10 24 10 14 0 28 5 31 10 4
6 11 7 17 4 7 -4 8 -2 4 4 -4 7 -1 12 6 13 7 0 30 2 51 4 29 3 37 1 37 -12 0
-14 3 -13 20 4 14 16 28 20 54 18 20 -2 38 1 41 6 7 11 45 -7 45 -22 0 -6 -5
-7 -12 -3 -7 5 -8 3 -2 -7 9 -15 12 -69 4 -69 -3 0 -6 -8 -7 -17 -1 -10 -4
-33 -6 -51 -3 -18 -1 -35 3 -37 11 -7 -21 -108 -45 -140 -11 -15 -30 -39 -42
-53 -13 -15 -23 -30 -23 -33 0 -7 -21 -31 -85 -100 -48 -51 -80 -70 -125 -75
-14 -2 -38 -5 -54 -8 -22 -5 -41 2 -83 30 -37 24 -60 33 -71 28 -9 -4 -34 -7
-55 -6 -32 1 -38 -2 -33 -15 6 -14 4 -14 -11 -2 -10 8 -25 21 -33 29 -8 9 -11
10 -6 3 5 -8 4 -13 -3 -13 -6 0 -16 9 -23 20 -7 11 -20 20 -28 21 -11 0 -12 2
-2 6 10 4 9 9 -4 24 -10 11 -12 19 -6 19 7 0 12 7 12 16 0 11 6 15 20 11 11
-3 18 -1 14 4 -3 5 2 9 10 9 9 0 16 5 16 12 0 6 3 8 7 5 3 -4 11 -3 17 2 10 9
44 16 126 27 100 14 126 23 140 49 7 14 18 25 25 25 6 0 11 10 12 22 1 11 17
37 36 57 47 50 87 107 87 123 0 9 -2 10 -8 1 -8 -13 -103 -78 -146 -100 -26
-14 -30 -13 -38 1 -5 9 -20 16 -33 16 -14 0 -25 4 -25 10 0 12 -62 5 -90 -10
-11 -6 -25 -8 -31 -5 -5 4 -21 8 -35 10 -13 1 -33 10 -43 19 -9 9 -22 16 -28
16 -6 0 -13 6 -16 14 -4 11 6 14 46 13 29 0 61 4 72 11 18 10 17 11 -12 12
-56 0 -83 16 -83 49 0 42 23 61 76 61 24 0 44 -5 44 -10 0 -6 12 -4 29 4 16 9
47 18 70 22 34 6 41 4 41 -10 0 -16 3 -15 26 3 28 22 61 23 74 1z m-373 -63
c4 -6 1 -7 -8 -2 -12 7 -12 6 -1 -7 10 -13 10 -17 -4 -22 -21 -8 -20 -8 -39
10 -11 12 -13 20 -5 29 12 14 46 9 57 -8z m-1504 -171 c-9 -27 -11 -20 -18 56
-10 113 5 153 18 49 6 -46 6 -85 0 -105z m-41 -108 c-8 -8 -16 6 -28 48 -25
80 -24 142 1 179 l20 30 9 -123 c6 -86 6 -126 -2 -134z m-89 2 c3 -11 1 -23
-4 -26 -5 -3 -9 6 -9 20 0 31 6 34 13 6z m22 -140 c3 -5 1 -10 -4 -10 -6 0
-11 5 -11 10 0 6 2 10 4 10 3 0 8 -4 11 -10z m5935 -2 c0 -10 -9 -9 -35 2 -17
8 -16 8 8 7 15 -1 27 -5 27 -9z m-5400 -222 c0 -3 -4 -8 -10 -11 -5 -3 -10 -1
-10 4 0 6 5 11 10 11 6 0 10 -2 10 -4z m-557 -98 c-12 -57 -55 -177 -69 -194
-14 -17 -15 -15 -9 31 13 104 46 185 75 185 4 0 6 -10 3 -22z m1967 -78 c0 -5
-5 -10 -11 -10 -5 0 -7 5 -4 10 3 6 8 10 11 10 2 0 4 -4 4 -10z m564 -175 c40
-60 93 -148 118 -195 25 -47 60 -110 78 -140 63 -106 91 -191 116 -355 13 -86
13 -91 -6 -115 -11 -14 -37 -53 -57 -87 -21 -35 -41 -63 -44 -63 -3 0 -9 21
-12 48 -4 26 -11 76 -16 112 -5 36 -14 116 -20 179 -9 91 -16 122 -36 157 -14
23 -25 53 -25 66 0 14 -8 42 -19 64 -10 21 -22 57 -25 80 -4 22 -23 70 -42
105 -65 120 -125 250 -130 282 l-6 32 27 -30 c14 -16 59 -79 99 -140z m504
-638 c17 -35 40 -71 50 -81 12 -10 57 -22 121 -32 55 -8 120 -22 143 -30 107
-38 236 -130 304 -218 33 -43 224 -397 224 -415 0 -36 -28 8 -99 152 -44 89
-99 190 -121 225 -108 162 -341 278 -520 257 -119 -14 -238 -96 -283 -195 -30
-66 -34 -178 -9 -257 15 -47 17 -63 7 -63 -20 0 -48 118 -49 205 -1 69 3 88
28 138 41 85 129 165 200 183 31 7 34 29 6 44 -11 6 -19 14 -18 18 2 9 -18
100 -28 126 -17 43 15 3 44 -57z m-158 -677 c0 -5 -7 -10 -16 -10 -8 0 -12 5
-9 10 3 6 10 10 16 10 5 0 9 -4 9 -10z m40 -102 c18 -46 46 -109 62 -140 31
-64 32 -68 18 -68 -11 0 -45 64 -101 192 -45 105 -43 98 -26 98 7 0 28 -37 47
-82z m2470 -38 c0 -5 -2 -10 -4 -10 -3 0 -8 5 -11 10 -3 6 -1 10 4 10 6 0 11
-4 11 -10z m-1156 -1134 c-3 -15 -8 -25 -11 -23 -2 3 -1 17 3 31 3 15 8 25 11
23 2 -3 1 -17 -3 -31z m-700 -42 c21 -25 30 -40 19 -34 -16 10 -69 80 -60 80
1 0 20 -21 41 -46z m363 -44 c26 -5 75 -15 107 -21 48 -9 56 -13 42 -21 -13
-7 -49 -2 -127 17 -60 15 -109 29 -109 31 0 7 37 4 87 -6z m-273 -37 c8 -19 2
-16 -25 13 -23 25 -23 26 -2 13 13 -7 25 -19 27 -26z m683 -9 c-3 -3 -12 -4
-19 -1 -8 3 -5 6 6 6 11 1 17 -2 13 -5z m-627 -44 c0 -5 -2 -10 -4 -10 -3 0
-8 5 -11 10 -3 6 -1 10 4 10 6 0 11 -4 11 -10z m335 -216 l30 -14 -40 6 c-22
3 -51 12 -65 20 -25 14 -25 15 10 8 19 -3 49 -13 65 -20z m1057 -67 c20 -9 39
-20 42 -25 2 -4 -37 -8 -87 -9 -51 0 -109 -3 -129 -6 -36 -5 -38 -4 -38 23 0
16 -4 30 -10 32 -5 2 34 3 88 2 67 -1 108 -6 134 -17z m-611 -25 c98 -21 149
-51 149 -87 0 -24 0 -24 -111 -23 -112 1 -185 13 -227 36 -12 7 -37 14 -55 16
-58 5 -109 49 -91 78 10 15 226 3 335 -20z m949 -64 c0 6 6 12 13 12 8 0 14
-6 14 -14 0 -18 -39 -15 -44 4 -4 13 -3 13 6 0 7 -10 11 -11 11 -2z m-561 -17
c16 -10 6 -31 -15 -31 -8 0 -14 -4 -14 -10 0 -5 8 -7 18 -4 13 5 14 4 3 -4
-10 -7 -21 -6 -38 5 -29 19 -30 40 0 46 12 2 24 5 27 5 3 1 11 -2 19 -7z m567
-23 c10 -16 13 -73 4 -83 -21 -25 -240 0 -240 28 0 5 -10 7 -22 4 -22 -6 -22
-6 -4 8 25 19 41 19 60 0 13 -14 16 -13 25 2 6 10 11 15 11 11 0 -4 24 4 53
17 49 24 103 30 113 13z m-293 -115 c10 -51 -36 -79 -142 -89 -80 -8 -85 0
-36 52 26 28 92 53 166 63 4 1 9 -11 12 -26z m-293 -28 c0 -8 7 -15 15 -15 24
0 7 -24 -35 -47 -46 -27 -51 -28 -43 -8 3 9 -2 24 -12 35 -27 29 -12 50 35 50
29 0 40 -4 40 -15z m-290 -18 c35 -18 39 -54 6 -67 -49 -18 -196 27 -196 60 0
21 151 27 190 7z m130 -220 c0 -8 9 -24 20 -37 28 -33 25 -50 -4 -20 -13 14
-21 28 -19 33 2 4 -3 7 -11 7 -9 0 -16 4 -16 9 0 5 -8 12 -17 14 -10 3 -3 5
15 6 21 1 32 -4 32 -12z"/>
<path d="M5226 6843 c-4 -4 -26 -15 -49 -23 -37 -14 -45 -15 -65 -2 -28 18
-39 10 -16 -13 19 -19 82 -15 94 6 4 6 23 12 41 14 51 4 51 4 43 16 -4 8 -9 7
-15 -2 -7 -11 -11 -11 -17 -1 -5 7 -12 9 -16 5z"/>
<path d="M5227 6319 c7 -7 15 -10 18 -7 3 3 -2 9 -12 12 -14 6 -15 5 -6 -5z"/>
<path d="M1086 10195 c4 -8 7 -15 9 -15 2 0 5 7 9 15 3 9 0 15 -9 15 -9 0 -12
-6 -9 -15z"/>
<path d="M900 10001 c-8 -6 -18 -7 -22 -5 -4 3 -8 0 -8 -5 0 -15 21 -13 44 4
21 16 10 20 -14 6z"/>
<path d="M7911 9834 c0 -11 3 -14 6 -6 3 7 2 16 -1 19 -3 4 -6 -2 -5 -13z"/>
<path d="M7930 9730 c0 -5 5 -10 10 -10 6 0 10 5 10 10 0 6 -4 10 -10 10 -5 0
-10 -4 -10 -10z"/>
<path d="M320 9302 c0 -5 7 -9 15 -9 8 0 15 4 15 9 0 4 -7 8 -15 8 -8 0 -15
-4 -15 -8z"/>
<path d="M3700 9201 c0 -5 -3 -16 -6 -25 -3 -9 -2 -16 4 -16 5 0 12 11 14 25
3 14 1 25 -3 25 -5 0 -9 -4 -9 -9z"/>
<path d="M5290 9196 c0 -2 8 -10 18 -17 15 -13 16 -12 3 4 -13 16 -21 21 -21
13z"/>
<path d="M5610 9030 c0 -5 4 -10 9 -10 6 0 13 5 16 10 3 6 -1 10 -9 10 -9 0
-16 -4 -16 -10z"/>
<path d="M4890 8900 c0 -5 5 -10 11 -10 5 0 7 5 4 10 -3 6 -8 10 -11 10 -2 0
-4 -4 -4 -10z"/>
<path d="M90 8788 c0 -4 4 -8 9 -8 6 0 12 4 15 8 3 5 -1 9 -9 9 -8 0 -15 -4
-15 -9z"/>
<path d="M5951 8454 c0 -11 3 -14 6 -6 3 7 2 16 -1 19 -3 4 -6 -2 -5 -13z"/>
<path d="M5925 6829 c-4 -6 -5 -12 -2 -15 2 -3 7 2 10 11 7 17 1 20 -8 4z"/>
<path d="M3299 5827 c-19 -15 -32 -47 -19 -47 11 0 45 48 39 54 -2 3 -11 -1
-20 -7z"/>
<path d="M3231 5693 c-37 -75 -60 -134 -48 -123 9 9 97 200 92 200 -3 0 -22
-35 -44 -77z"/>
<path d="M3107 5199 c6 -21 11 -24 95 -54 38 -13 50 -23 60 -51 15 -42 20 -42
35 -4 14 37 37 39 103 5 27 -14 88 -34 135 -45 47 -11 100 -26 118 -33 40 -17
59 -15 93 12 15 12 36 21 48 22 21 0 21 1 1 9 -11 5 -58 9 -105 10 -100 1
-281 44 -455 109 -127 47 -135 48 -128 20z"/>
<path d="M2986 5028 c-3 -13 -6 -37 -6 -54 0 -17 -9 -73 -19 -125 -11 -52 -31
-186 -45 -299 -15 -113 -33 -236 -41 -275 -17 -85 -36 -236 -70 -545 -14 -129
-32 -278 -40 -330 -8 -52 -17 -126 -20 -165 -3 -38 -14 -122 -25 -185 -11 -63
-23 -135 -26 -159 -3 -25 -7 -48 -10 -52 -2 -4 -5 -53 -6 -108 0 -67 -5 -101
-12 -101 -7 0 -6 -3 2 -8 6 -5 12 -19 11 -33 -3 -128 23 -360 52 -459 55 -188
64 -114 68 510 3 699 48 1256 137 1709 29 144 37 213 44 378 5 112 12 230 16
263 7 60 2 80 -10 38z"/>
<path d="M2592 4901 c-8 -22 -12 -108 -13 -245 0 -116 -4 -258 -9 -316 -24
-275 -22 -269 -47 -249 -15 13 -16 11 -9 -21 26 -126 35 -393 16 -461 -6 -20
-17 -43 -26 -50 -20 -17 -32 -4 -84 96 -23 44 -39 71 -36 60 3 -11 21 -74 41
-140 19 -66 40 -149 45 -185 6 -36 13 -78 15 -93 3 -20 1 -26 -8 -21 -9 5 -9
4 1 -7 15 -16 16 -158 1 -229 -12 -54 -24 -61 -69 -35 -29 16 -68 19 -89 6
-12 -8 -9 -21 18 -80 29 -63 36 -102 30 -164 -4 -31 -23 -13 -56 53 -19 38
-35 89 -39 123 -6 55 -10 62 -73 125 -127 128 -275 262 -289 262 -9 0 -12 3
-9 7 4 3 -10 20 -31 37 -20 17 -57 52 -81 79 -82 88 -78 61 19 -128 40 -77 94
-172 121 -212 27 -40 49 -77 49 -83 0 -5 5 -10 10 -10 6 0 10 -6 10 -12 1 -15
76 -133 147 -228 46 -63 82 -106 164 -198 46 -50 49 -78 13 -94 -26 -12 -24
-13 -158 28 -44 13 -61 15 -64 6 -3 -9 -9 -9 -25 0 -12 6 -24 11 -27 11 -3 0
-15 3 -28 8 -27 10 -42 11 -42 3 0 -5 50 -75 61 -84 3 -3 25 -41 49 -85 23
-44 51 -91 61 -104 11 -13 19 -30 19 -37 0 -8 4 -14 9 -14 8 0 36 -63 29 -66
-2 -1 4 -10 13 -20 14 -16 18 -53 11 -86 -3 -11 -45 -22 -72 -19 -14 1 -37 10
-51 21 -18 13 -30 15 -42 8 -12 -6 -17 -5 -17 4 -1 25 -29 -37 -30 -64 0 -15
19 -62 42 -105 78 -146 87 -167 76 -178 -7 -7 -12 -6 -15 2 -2 7 -11 9 -19 6
-8 -3 -14 1 -14 10 0 9 -4 19 -10 22 -7 4 -7 -2 0 -19 16 -42 -3 -37 -55 14
-134 133 -272 230 -380 268 -149 53 -485 43 -485 -14 0 -17 18 -25 140 -59
180 -51 197 -56 216 -69 10 -7 40 -20 66 -30 54 -20 105 -62 110 -91 2 -14 28
-31 93 -59 105 -46 207 -109 269 -167 50 -45 51 -65 3 -74 -25 -5 -51 4 -120
40 -63 32 -100 45 -130 45 -78 0 -452 -31 -495 -41 -47 -11 -185 -69 -178 -76
2 -2 66 12 142 31 118 30 163 36 294 41 85 4 176 11 202 17 38 9 54 8 91 -6
88 -33 86 -69 -4 -72 -59 -2 -71 -10 -37 -23 14 -5 28 -18 30 -29 6 -23 73
-42 145 -42 28 0 58 -7 71 -16 21 -14 21 -17 7 -45 -15 -28 -15 -29 7 -29 35
0 157 -37 187 -56 63 -42 65 -66 6 -124 -41 -40 -59 -80 -36 -80 5 0 24 -14
42 -32 54 -50 194 -147 246 -169 50 -21 80 -52 118 -122 12 -23 39 -73 60
-111 36 -65 37 -70 20 -82 -17 -13 -17 -14 1 -40 10 -14 28 -42 39 -62 22 -39
23 -39 115 -81 73 -34 188 -124 228 -179 14 -20 46 -54 70 -74 l43 -38 95 0
94 0 0 78 c0 42 7 163 16 267 9 105 19 393 24 640 5 270 15 514 24 610 24 239
29 298 30 318 0 9 3 17 6 17 3 0 5 48 5 108 -1 111 3 139 15 106 16 -43 15
531 -1 619 -16 89 -25 104 -65 104 -19 0 -34 -4 -34 -9 0 -5 -5 -6 -11 -2 -16
10 -58 -16 -52 -32 3 -8 -1 -14 -11 -14 -9 0 -16 -4 -16 -10 0 -5 -7 -10 -16
-10 -8 0 -12 4 -9 10 8 13 -26 0 -43 -17 -7 -7 -13 -15 -12 -18 0 -3 -1 -8 -1
-12 -1 -5 -1 -16 0 -25 1 -10 -2 -18 -7 -18 -6 0 -9 -11 -8 -24 2 -14 -3 -27
-11 -30 -9 -4 -12 -1 -8 7 4 6 1 5 -7 -4 -7 -9 -19 -14 -27 -11 -8 3 -5 -5 7
-18 19 -21 21 -40 4 -40 -11 0 -34 59 -27 70 3 5 1 10 -4 10 -6 0 -11 5 -11
11 0 5 4 8 8 5 4 -2 6 11 4 30 -2 19 -8 34 -12 34 -9 0 -25 -40 -22 -52 3 -12
-12 -10 -25 3 -8 8 -11 6 -10 -6 1 -10 -3 -20 -10 -22 -7 -3 -9 3 -6 16 3 12
1 21 -4 21 -5 0 -10 -15 -11 -32 -2 -18 -8 -37 -13 -43 -8 -7 -9 -3 -4 15 7
21 6 22 -6 9 -8 -8 -18 -23 -24 -33 -14 -24 -28 -23 -42 5 -7 13 -18 23 -25
21 -8 -2 -7 2 2 13 11 14 11 16 -1 13 -9 -2 -13 4 -11 16 2 11 -1 15 -7 11 -7
-4 -11 4 -11 19 0 14 -4 26 -10 26 -5 0 -10 7 -10 15 0 8 -8 15 -17 16 -11 0
-13 3 -5 6 16 6 6 23 -14 23 -8 0 -12 -4 -9 -10 3 -5 1 -10 -4 -10 -6 0 -11
10 -11 22 0 26 -9 19 -15 -11 -3 -15 1 -21 13 -22 12 0 11 -3 -5 -9 -13 -5
-23 -12 -23 -15 0 -4 5 -3 10 0 6 3 10 1 10 -4 0 -6 -6 -11 -12 -11 -10 0 -9
-3 1 -9 7 -5 11 -14 7 -19 -4 -6 -2 -37 3 -69 5 -35 5 -67 -1 -82 -5 -14 -5
-27 0 -30 15 -11 22 -41 9 -41 -9 0 -9 -2 1 -8 19 -13 32 -68 19 -82 -9 -10
-9 -14 1 -17 6 -3 12 -18 12 -34 0 -16 3 -29 8 -29 4 0 8 -16 9 -35 1 -19 -3
-35 -8 -35 -5 0 -9 -5 -9 -11 0 -5 5 -7 12 -3 7 4 8 3 4 -5 -4 -6 -12 -9 -17
-6 -13 9 -11 32 4 38 7 3 5 6 -5 6 -20 1 -24 16 -7 27 8 4 6 10 -6 17 -10 5
-13 12 -8 16 6 4 5 17 -3 36 -9 20 -13 24 -14 12 0 -12 -4 -16 -12 -11 -10 6
-10 4 -2 -7 15 -19 24 -70 11 -62 -6 4 -8 -2 -5 -15 4 -13 2 -20 -4 -16 -6 4
-8 -6 -5 -25 3 -17 1 -33 -3 -36 -5 -3 -5 -16 0 -30 13 -34 2 -269 -14 -307
-4 -9 -2 -42 4 -75 15 -75 14 -72 33 -117 9 -21 15 -42 12 -46 -3 -5 -1 -11 5
-15 5 -3 10 -19 10 -36 0 -16 4 -29 10 -29 5 0 9 -3 8 -7 -3 -11 13 -96 20
-108 5 -8 7 -19 16 -75 1 -9 6 -22 11 -30 5 -8 10 -28 12 -44 2 -17 8 -33 14
-36 5 -4 11 -18 13 -31 1 -14 6 -30 10 -37 4 -7 4 -12 0 -12 -4 0 1 -7 12 -15
11 -8 14 -14 6 -15 -9 0 -9 -6 3 -23 8 -13 12 -27 8 -32 -5 -4 -2 -5 5 -1 11
7 17 -10 13 -41 -1 -7 3 -13 9 -13 5 0 10 -11 10 -24 0 -14 5 -28 10 -31 6 -3
10 -19 10 -36 0 -16 4 -29 8 -29 4 0 9 -12 10 -28 4 -62 7 -72 20 -72 7 0 10
-5 7 -11 -4 -5 1 -20 12 -31 10 -12 13 -18 7 -15 -7 4 -14 -5 -18 -25 -6 -32
-6 -32 -22 -10 -8 12 -33 30 -55 40 -38 17 -43 18 -74 3 -19 -9 -34 -23 -35
-32 0 -22 -28 -20 -36 3 -3 10 -9 16 -14 13 -11 -7 -33 98 -70 325 -9 52 -46
366 -56 475 -3 28 -9 66 -14 85 -6 19 -10 52 -10 73 0 20 -5 37 -10 37 -6 0
-10 17 -9 38 2 45 -10 154 -17 161 -3 3 -9 -1 -14 -9 -8 -13 -10 -12 -10 3 0
9 5 17 10 17 6 0 10 5 10 11 0 5 -4 8 -8 5 -4 -2 -7 12 -5 32 2 27 1 32 -5 17
-10 -23 -15 33 -39 452 -19 334 -22 1019 -9 1873 6 419 5 513 -6 550 l-14 45
-12 -34z m-308 -2087 c3 -8 2 -12 -4 -9 -6 3 -10 10 -10 16 0 14 7 11 14 -7z
m747 -227 c-10 -9 -11 -8 -5 6 3 10 9 15 12 12 3 -3 0 -11 -7 -18z m-901 -77
c0 -5 -4 -10 -10 -10 -5 0 -10 5 -10 10 0 6 5 10 10 10 6 0 10 -4 10 -10z
m415 -712 c16 -51 36 -110 45 -131 17 -37 16 -87 -1 -87 -5 0 -9 -11 -9 -25 0
-14 -4 -25 -10 -25 -5 0 -10 5 -10 10 0 6 -4 10 -9 10 -4 0 -7 -11 -6 -25 3
-20 -1 -25 -18 -24 -12 0 -16 3 -9 6 16 6 16 26 0 21 -17 -6 -36 14 -31 32 4
12 3 12 -4 2 -6 -7 -14 -12 -19 -11 -24 4 -27 -3 -5 -15 23 -13 23 -13 3 -18
-12 -4 -20 -1 -19 4 1 6 -13 15 -31 20 -18 5 -30 13 -27 17 3 5 -4 7 -15 4
-14 -4 -20 0 -20 11 0 11 5 14 12 10 7 -4 8 -3 4 5 -4 6 13 41 38 80 51 76 96
171 96 201 0 45 18 15 45 -72z m142 -20 c-3 -7 -5 -2 -5 12 0 14 2 19 5 13 2
-7 2 -19 0 -25z m10 -110 c-3 -8 -6 -5 -6 6 -1 11 2 17 5 13 3 -3 4 -12 1 -19z
m-347 -119 c0 -6 -4 -7 -10 -4 -5 3 -10 11 -10 16 0 6 5 7 10 4 6 -3 10 -11
10 -16z m-4 -24 c13 -13 27 -25 29 -25 3 0 10 0 16 0 5 0 8 -4 4 -10 -3 -5
-12 -7 -20 -3 -8 3 -15 0 -15 -6 0 -6 8 -11 18 -12 10 0 12 -3 4 -6 -6 -2 -10
-8 -7 -13 3 -4 -6 -3 -20 3 -13 7 -20 14 -15 15 6 2 10 8 10 13 0 6 -5 7 -12
3 -7 -5 -9 -2 -6 7 3 8 -1 20 -8 27 -8 7 -14 8 -14 2 0 -13 -11 -13 -30 0 -13
9 -13 11 0 20 24 15 39 12 66 -15z m34 15 c0 -5 -7 -10 -16 -10 -8 0 -12 5 -9
10 3 6 10 10 16 10 5 0 9 -4 9 -10z m25 -20 c3 -5 1 -10 -4 -10 -6 0 -11 5
-11 10 0 6 2 10 4 10 3 0 8 -4 11 -10z m122 -62 c-3 -7 -5 -2 -5 12 0 14 2 19
5 13 2 -7 2 -19 0 -25z"/>
<path d="M2527 1693 c-10 -9 -9 -23 1 -23 5 0 9 7 9 15 0 17 -1 18 -10 8z"/>
<path d="M2455 1680 c-4 -6 0 -22 9 -35 19 -29 20 -38 4 -30 -7 4 -4 -1 6 -9
11 -9 21 -14 23 -12 5 5 -20 60 -31 67 -5 4 -5 12 -2 18 4 6 5 11 2 11 -3 0
-8 -5 -11 -10z"/>
<path d="M2486 1682 c-3 -5 1 -9 9 -9 8 0 15 4 15 9 0 4 -4 8 -9 8 -6 0 -12
-4 -15 -8z"/>
<path d="M2423 1665 c0 -8 4 -12 9 -9 4 3 8 9 8 15 0 5 -4 9 -8 9 -5 0 -9 -7
-9 -15z"/>
<path d="M2437 1637 c-3 -8 -2 -20 3 -26 5 -9 8 -4 8 13 0 29 -3 32 -11 13z"/>
<path d="M2515 1610 c-3 -5 -1 -10 4 -10 6 0 11 5 11 10 0 6 -2 10 -4 10 -3 0
-8 -4 -11 -10z"/>
<path d="M2440 1580 c0 -5 7 -10 15 -10 8 0 15 5 15 10 0 6 -7 10 -15 10 -8 0
-15 -4 -15 -10z"/>
<path d="M2406 1573 c-11 -11 -7 -20 9 -20 8 0 15 4 15 8 0 11 -16 20 -24 12z"/>
<path d="M8560 4660 c0 -5 5 -10 10 -10 6 0 10 5 10 10 0 6 -4 10 -10 10 -5 0
-10 -4 -10 -10z"/>
<path d="M2030 4567 c-7 -34 -13 -83 -13 -109 0 -26 -3 -46 -6 -44 -3 2 -5
-26 -4 -62 1 -37 3 -67 3 -67 1 0 3 -11 5 -25 10 -72 18 -116 25 -125 4 -5 13
-28 20 -49 7 -22 17 -45 22 -50 5 -6 14 -19 21 -29 11 -16 13 -11 11 31 0 27
-4 53 -7 59 -4 6 -9 50 -12 99 -3 49 -9 103 -14 119 -9 29 -21 145 -26 253 -2
29 -5 55 -7 58 -3 2 -10 -24 -18 -59z"/>
<path d="M8520 4599 c0 -5 -4 -7 -10 -4 -6 3 -7 -1 -4 -9 9 -22 19 -20 21 4 1
11 0 20 -3 20 -2 0 -4 -5 -4 -11z"/>
<path d="M3249 4593 c-1 -5 -4 -60 -5 -123 -2 -63 -4 -126 -5 -140 -3 -49 1
-60 16 -54 12 5 15 33 15 165 0 99 -4 159 -10 159 -5 0 -11 -3 -11 -7z"/>
<path d="M3361 4558 c-1 -3 8 -28 20 -55 12 -26 28 -70 36 -98 8 -27 39 -97
70 -155 30 -58 68 -143 85 -190 31 -90 78 -181 109 -215 10 -12 35 -54 54 -94
37 -76 132 -226 167 -264 50 -55 211 -333 284 -494 74 -159 133 -361 154 -518
6 -49 13 -101 15 -115 2 -14 7 -50 10 -80 13 -118 16 -139 45 -270 8 -37 40
-134 61 -185 7 -16 13 -32 13 -35 3 -15 63 -90 73 -90 6 0 15 -9 18 -20 3 -11
11 -20 16 -20 5 0 9 -4 9 -10 0 -5 8 -18 18 -27 16 -17 18 -17 39 2 16 16 19
25 12 38 -6 9 -7 22 -4 27 3 6 1 10 -5 10 -6 0 -10 6 -8 12 1 7 -2 31 -6 53
-15 78 -15 121 1 178 9 32 20 60 26 64 6 3 7 1 3 -5 -4 -7 -1 -12 8 -12 37 0
33 8 -317 720 -173 350 -501 934 -630 1119 -18 25 -109 201 -204 391 -94 190
-172 342 -172 338z"/>
<path d="M1845 4438 c4 -29 11 -75 16 -102 12 -64 12 -146 -1 -146 -5 0 -6 -7
-3 -17 4 -11 3 -14 -5 -9 -15 9 -15 0 2 -60 8 -27 17 -66 20 -87 3 -20 17 -69
31 -108 13 -39 22 -75 19 -80 -3 -5 2 -12 11 -15 20 -8 48 -61 39 -76 -5 -7 2
-9 20 -6 22 5 29 1 37 -20 5 -13 21 -38 34 -54 14 -16 25 -37 26 -46 0 -12 2
-13 6 -4 4 10 11 8 28 -8 17 -16 25 -18 30 -9 5 7 4 10 -2 6 -6 -4 -14 5 -18
21 -3 15 -20 56 -37 92 -45 96 -59 133 -63 167 -2 12 -8 38 -15 58 -6 20 -9
42 -6 50 3 8 1 15 -4 15 -6 0 -9 3 -8 8 1 4 -2 23 -6 42 -4 19 -8 42 -10 52
-1 9 -11 36 -23 60 -12 23 -31 77 -43 118 -25 87 -70 210 -77 210 -2 0 -1 -24
2 -52z"/>
<path d="M1500 4299 c0 -5 -11 -24 -25 -44 -22 -34 -53 -107 -69 -165 l-7 -25
20 25 c18 22 43 70 91 175 8 17 16 33 17 36 2 3 -3 6 -12 6 -8 0 -15 -4 -15
-8z"/>
<path d="M6 4261 c-4 -7 -5 -15 -2 -18 9 -9 19 4 14 18 -4 11 -6 11 -12 0z"/>
<path d="M7686 4197 c-14 -19 -26 -37 -26 -41 0 -4 -7 -14 -15 -23 -8 -8 -12
-19 -9 -25 4 -6 2 -8 -3 -5 -6 4 -21 -9 -34 -27 -13 -19 -28 -32 -33 -29 -5 3
-6 1 -2 -5 4 -7 3 -12 -3 -12 -15 0 -81 -112 -81 -137 0 -28 3 -28 37 -6 l26
17 -17 -32 c-24 -47 -19 -62 8 -19 13 21 36 51 51 67 15 15 25 31 23 33 -1 3
29 47 67 97 105 137 100 129 85 143 -8 8 -11 8 -7 1 4 -7 0 -17 -8 -24 -12
-10 -16 -9 -21 4 -3 9 -4 23 -1 31 12 29 -12 24 -37 -8z m34 -64 c0 -13 -3
-13 -15 -3 -8 7 -12 16 -9 21 8 13 24 1 24 -18z m-101 -65 c-6 -13 -18 -31
-27 -40 -14 -16 -13 -20 2 -37 12 -13 14 -21 6 -26 -7 -4 -14 1 -17 13 -3 14
-10 19 -21 14 -12 -4 -10 3 8 29 44 64 72 90 49 47z"/>
<path d="M6 4193 c-11 -11 -6 -23 9 -23 8 0 15 4 15 9 0 13 -16 22 -24 14z"/>
<path d="M0 2080 l0 -2080 882 2 c870 3 883 3 887 23 4 23 32 46 45 37 5 -3 7
2 3 11 -7 19 12 23 31 7 9 -7 9 -7 2 2 -15 18 -12 38 6 38 8 0 12 5 9 10 -3 6
3 10 14 10 10 0 27 3 35 6 13 5 9 10 -16 24 -18 9 -44 21 -58 25 -24 7 -25 7
-7 -12 17 -20 17 -20 -18 -16 -24 2 -34 0 -30 -7 9 -14 -9 -13 -48 3 -18 8
-64 22 -103 31 -86 21 -128 45 -154 88 -24 40 -26 120 -4 173 20 49 13 68 -10
22 -9 -20 -20 -37 -25 -37 -9 0 -21 -24 -51 -103 -12 -31 -27 -57 -32 -57 -6
0 -8 -7 -4 -15 3 -8 0 -16 -7 -17 -36 -4 -43 -4 -52 3 -5 4 -13 8 -17 8 -5 1
-9 1 -10 2 -35 10 -55 13 -115 13 -71 1 -72 1 -106 41 -32 39 -106 144 -121
175 -4 8 2 3 14 -12 13 -17 28 -25 40 -23 12 2 21 -3 25 -16 4 -11 11 -16 17
-13 5 4 21 1 34 -6 21 -12 33 -9 109 30 47 24 90 49 96 56 6 8 18 14 25 14 8
0 14 4 14 10 0 5 14 17 30 25 17 9 36 27 42 40 6 13 15 22 20 18 6 -3 5 5 -2
17 -8 15 -8 20 -1 16 17 -11 13 10 -4 24 -11 9 -12 16 -5 25 8 9 6 14 -5 19
-8 3 -15 0 -15 -6 0 -7 -5 -6 -15 2 -8 7 -13 16 -10 20 3 5 0 12 -6 16 -8 4
-9 3 -5 -4 4 -7 2 -12 -3 -12 -6 0 -11 5 -11 10 0 6 -5 10 -11 10 -5 0 -7 -6
-3 -12 6 -10 4 -10 -8 0 -14 11 -18 10 -26 -5 -6 -10 -14 -15 -18 -11 -4 5
-14 2 -22 -5 -13 -10 -14 -9 -8 1 7 11 4 12 -10 4 -11 -5 -25 -7 -33 -4 -8 2
-11 0 -8 -5 3 -5 -1 -10 -9 -10 -11 0 -14 7 -10 21 3 12 6 26 6 31 0 6 5 3 10
-5 8 -13 10 -13 10 1 0 19 107 122 174 168 24 17 56 31 69 31 30 0 40 21 27
55 -14 36 -32 39 -94 16 -90 -34 -364 -101 -410 -101 -90 0 -153 39 -158 97
l-3 35 -30 -26 c-49 -43 -113 -70 -130 -56 -8 6 -19 9 -25 5 -5 -3 -10 -2 -10
4 0 5 -12 16 -27 23 -32 15 -75 75 -71 97 4 16 12 17 91 8 60 -7 177 27 199
58 4 6 8 6 8 1 0 -5 27 18 61 51 65 66 79 108 46 140 -15 15 -20 15 -69 -10
-43 -22 -67 -27 -124 -27 -51 0 -75 -4 -84 -15 -17 -21 -27 -19 -55 10 -18 18
-25 35 -25 65 0 30 -4 40 -16 40 -27 0 -74 56 -74 87 0 39 10 48 50 49 438 12
467 13 545 34 176 47 223 58 283 65 73 8 83 25 15 26 -27 0 -57 2 -68 4 -83
14 -220 25 -327 25 -128 0 -169 12 -82 24 26 3 61 6 78 7 23 0 11 6 -45 23
-116 35 -159 73 -159 142 0 13 -4 24 -10 24 -12 0 -84 -71 -130 -129 -19 -24
-48 -58 -63 -75 -27 -30 -27 -29 8 43 21 41 43 81 51 88 8 8 15 20 16 26 0 7
2 17 3 22 2 6 3 21 4 35 2 30 127 164 189 204 23 14 42 31 42 37 0 5 5 7 10 4
6 -4 7 -12 4 -18 -4 -7 6 0 22 15 16 15 43 30 59 33 58 13 87 28 96 53 12 31
-2 59 -73 148 -30 38 -63 89 -73 114 -24 58 -33 69 -44 51 -16 -25 -19 4 -6
54 7 28 15 91 19 141 3 50 8 99 12 108 3 9 1 16 -5 16 -6 0 -11 -10 -11 -22 0
-19 -2 -20 -10 -8 -7 11 -10 11 -10 2 0 -7 -5 -10 -10 -7 -6 4 -9 1 -8 -7 2
-7 -3 -12 -10 -10 -8 1 -11 -2 -7 -7 8 -14 -16 -51 -33 -51 -9 0 -11 7 -6 22
6 21 6 21 -10 5 -10 -9 -14 -21 -11 -27 3 -5 1 -10 -6 -10 -7 0 -9 10 -6 26 4
21 0 26 -24 31 -22 4 -29 11 -29 30 0 13 -7 26 -15 29 -8 4 -12 10 -9 15 3 5
9 7 13 5 4 -3 13 -1 21 5 12 6 12 9 2 9 -17 0 -38 21 -46 46 -6 21 -30 25 -55
10 -18 -11 -5 35 15 50 16 13 8 25 -12 17 -8 -3 -14 0 -14 7 0 6 -4 9 -9 6 -5
-3 -11 1 -14 9 -4 9 -1 12 9 8 8 -3 14 1 14 8 0 13 -18 18 -80 20 -21 1 -22 2
-7 10 9 6 21 8 25 5 5 -3 9 1 9 8 0 8 -11 12 -28 11 -20 -2 -26 1 -22 11 3 8
9 11 14 8 5 -3 9 0 9 5 0 6 -5 11 -11 11 -6 0 -9 6 -6 14 4 9 -3 16 -19 20
-13 4 -24 12 -24 18 0 9 3 9 12 0 16 -16 28 -15 28 3 0 8 -9 15 -21 15 -11 0
-18 4 -15 9 3 4 -1 17 -9 27 -13 16 -14 17 -9 2 3 -10 1 -18 -4 -18 -6 0 -9
11 -6 25 3 18 0 25 -12 25 -13 0 -14 3 -4 15 7 8 10 16 6 16 -3 1 -10 2 -15 3
-14 2 -26 16 -14 16 19 0 12 52 -8 57 -11 3 -19 9 -19 14 0 5 8 5 18 2 15 -6
15 -5 4 10 -8 9 -12 29 -11 44 2 15 -1 30 -6 32 -12 5 -36 38 -39 54 -1 7 -7
21 -13 32 -5 11 -8 27 -6 35 3 10 -1 8 -11 -4 -20 -24 -31 -15 -17 12 15 28
14 31 -9 25 -11 -3 -20 0 -20 6 0 6 8 11 17 11 15 0 15 2 -2 14 -17 12 -18 16
-5 32 14 18 14 18 -3 5 -20 -16 -37 -7 -19 11 7 7 12 17 12 23 0 5 -5 3 -10
-5 -6 -10 -10 -11 -10 -2 0 6 -7 12 -15 12 -10 0 -15 7 -13 18 2 10 -2 16 -10
14 -8 -1 -11 2 -7 8 3 6 10 8 15 5 13 -8 20 9 9 25 -6 10 -9 11 -9 3 0 -7 -7
-13 -16 -13 -9 0 -14 7 -12 18 1 9 -1 23 -5 30 -5 7 -3 12 3 12 6 0 9 4 5 10
-3 5 -13 6 -23 3 -13 -4 -13 -2 3 10 11 9 15 17 8 17 -7 0 -10 6 -7 14 4 10
-2 12 -20 9 -19 -4 -26 -1 -26 11 0 9 -8 16 -17 16 -13 0 -14 3 -6 8 7 4 12
22 10 39 -1 17 -6 29 -10 26 -4 -2 -5 -14 -1 -25 4 -14 2 -18 -5 -14 -6 4 -11
22 -11 40 0 34 -20 62 -35 48 -4 -4 -2 3 4 16 10 18 9 22 -4 22 -13 0 -15
-222 -15 -2080z m40 2020 c0 -5 -2 -10 -4 -10 -3 0 -8 5 -11 10 -3 6 -1 10 4
10 6 0 11 -4 11 -10z m-2 -45 c-3 -3 -9 2 -12 12 -6 14 -5 15 5 6 7 -7 10 -15
7 -18z m212 -395 c0 -5 -2 -10 -4 -10 -3 0 -8 5 -11 10 -3 6 -1 10 4 10 6 0
11 -4 11 -10z m80 -220 c0 -5 -5 -10 -11 -10 -5 0 -7 5 -4 10 3 6 8 10 11 10
2 0 4 -4 4 -10z m295 -470 c3 -5 2 -10 -4 -10 -5 0 -13 5 -16 10 -3 6 -2 10 4
10 5 0 13 -4 16 -10z m10 -30 c3 -5 2 -10 -4 -10 -5 0 -13 5 -16 10 -3 6 -2
10 4 10 5 0 13 -4 16 -10z m65 -120 c0 -5 -2 -10 -4 -10 -3 0 -8 5 -11 10 -3
6 -1 10 4 10 6 0 11 -4 11 -10z m70 -54 c0 -3 -4 -8 -10 -11 -5 -3 -10 -1 -10
4 0 6 5 11 10 11 6 0 10 -2 10 -4z m0 -86 c0 -5 -5 -10 -11 -10 -5 0 -7 5 -4
10 3 6 8 10 11 10 2 0 4 -4 4 -10z"/>
<path d="M1484 4146 c-11 -8 -29 -34 -39 -58 -11 -24 -23 -45 -26 -48 -10 -7
-77 -171 -96 -234 -8 -27 -21 -59 -29 -71 -13 -21 -12 -24 11 -39 14 -9 23
-21 20 -26 -3 -5 -1 -11 3 -14 12 -7 23 17 74 157 35 97 44 113 46 87 2 -17
-4 -43 -13 -57 -9 -13 -14 -27 -11 -30 3 -3 -2 -12 -12 -19 -14 -11 -15 -16
-4 -33 8 -15 9 -21 1 -21 -7 0 -9 -10 -7 -24 4 -18 0 -26 -15 -30 -21 -5 -21
-5 -2 -26 15 -17 16 -23 6 -29 -9 -6 -10 -10 -2 -12 7 -3 14 -20 16 -38 3 -19
8 -37 13 -40 5 -3 10 -26 11 -51 4 -69 8 -102 16 -140 4 -19 8 -43 9 -52 0
-10 3 -18 7 -18 3 0 9 -22 13 -49 4 -28 13 -66 22 -86 21 -51 15 -145 -8 -145
-10 0 -18 -4 -18 -10 0 -5 -7 -10 -16 -10 -8 0 -12 5 -9 10 3 6 -3 10 -14 10
-12 0 -21 5 -21 10 0 6 -9 10 -19 10 -11 0 -29 12 -40 28 -11 15 -21 21 -21
15 0 -7 -5 -13 -11 -13 -5 0 -7 6 -3 13 6 9 4 9 -7 1 -8 -6 -26 -9 -41 -8 -16
2 -29 -3 -32 -12 -3 -9 -10 -13 -14 -10 -11 7 -34 -42 -27 -55 4 -5 1 -9 -6
-9 -7 0 -4 -7 7 -15 18 -14 18 -14 -4 -10 -19 3 -21 1 -12 -14 5 -10 6 -22 2
-26 -4 -5 -2 -6 3 -3 11 6 37 -17 29 -25 -3 -3 4 -8 15 -12 12 -3 21 -13 21
-21 0 -8 4 -13 9 -9 5 3 12 -3 16 -14 3 -11 12 -22 20 -25 8 -3 15 -12 15 -21
0 -8 7 -15 15 -15 9 0 18 -12 21 -30 4 -16 10 -27 15 -24 5 3 9 1 9 -5 0 -6
12 -23 28 -39 47 -50 137 -154 146 -170 21 -36 374 -378 382 -369 7 7 -38 107
-48 107 -4 0 -5 7 -2 15 4 10 2 13 -8 10 -13 -5 -46 35 -165 194 -23 31 -42
61 -42 67 -1 6 -10 19 -21 29 -11 10 -17 21 -15 26 3 4 1 10 -5 14 -12 7 -41
70 -47 100 -2 10 -9 23 -16 27 -7 5 4 7 25 5 47 -4 68 -24 99 -90 13 -28 26
-54 29 -57 3 -3 27 -50 54 -104 28 -55 52 -94 53 -89 2 6 -12 51 -31 100 -19
49 -38 102 -41 119 -8 35 -55 165 -65 179 -4 6 -17 42 -30 80 -12 39 -27 81
-33 95 -19 46 -57 245 -57 300 0 8 0 28 1 44 0 16 -4 33 -9 38 -5 5 -7 19 -4
30 4 15 7 17 13 6 10 -15 12 221 3 246 -3 9 -10 14 -14 11 -5 -3 -12 -1 -15 5
-4 6 -1 9 7 8 7 -2 13 3 12 10 -1 6 -2 21 -2 33 -1 11 -6 17 -12 14 -12 -7
-12 -8 -15 181 -1 82 -6 170 -10 195 -7 39 -9 41 -16 19 l-7 -25 -1 26 c-1 14
5 33 12 43 11 16 14 15 35 -13 12 -17 28 -31 34 -31 7 0 -3 16 -22 35 -39 40
-39 40 -66 21z m68 -601 c3 -13 1 -22 -3 -19 -9 5 -13 44 -5 44 2 0 6 -11 8
-25z m2 -51 c3 -8 2 -12 -4 -9 -6 3 -10 10 -10 16 0 14 7 11 14 -7z m0 -54
c-6 -6 -10 -3 -10 10 0 13 4 16 10 10 7 -7 7 -13 0 -20z"/>
<path d="M6380 4084 c0 -6 7 -19 16 -30 14 -18 14 -18 3 6 -14 31 -19 36 -19
24z"/>
<path d="M7390 4015 c0 -5 5 -17 10 -25 5 -8 10 -10 10 -5 0 6 -5 17 -10 25
-5 8 -10 11 -10 5z"/>
<path d="M6460 3930 c17 -33 33 -60 35 -60 3 0 -8 27 -25 60 -17 33 -33 60
-35 60 -3 0 8 -27 25 -60z"/>
<path d="M7411 3965 c0 -5 9 -28 20 -50 10 -22 16 -29 13 -15 -7 28 -33 80
-33 65z"/>
<path d="M7401 3874 c0 -11 3 -14 6 -6 3 7 2 16 -1 19 -3 4 -6 -2 -5 -13z"/>
<path d="M1755 3860 c10 -11 20 -20 23 -20 3 0 -3 9 -13 20 -10 11 -20 20 -23
20 -3 0 3 -9 13 -20z"/>
<path d="M7451 3865 c0 -5 9 -41 20 -80 17 -63 19 -65 15 -23 -5 41 -34 129
-35 103z"/>
<path d="M2176 3834 c-8 -20 -4 -25 11 -16 7 4 9 13 4 21 -6 10 -10 9 -15 -5z"/>
<path d="M205 3820 c-3 -5 -1 -10 4 -10 6 0 11 5 11 10 0 6 -2 10 -4 10 -3 0
-8 -4 -11 -10z"/>
<path d="M7421 3804 c0 -11 3 -14 6 -6 3 7 2 16 -1 19 -3 4 -6 -2 -5 -13z"/>
<path d="M1851 3749 c30 -36 95 -114 144 -173 50 -59 107 -128 128 -154 49
-61 119 -132 129 -132 13 0 9 22 -12 65 -27 56 -25 60 15 36 19 -12 51 -30 70
-42 19 -12 35 -19 35 -16 0 3 -17 16 -37 28 -20 13 -82 61 -138 108 -55 46
-86 69 -70 50 17 -19 33 -35 38 -37 9 -5 9 -22 -1 -22 -7 0 -57 49 -276 275
l-78 80 53 -66z"/>
<path d="M2196 3793 c-6 -14 -5 -15 5 -6 7 7 10 15 7 18 -3 3 -9 -2 -12 -12z"/>
<path d="M7603 3795 c-11 -8 -34 -35 -49 -60 -17 -26 -37 -45 -47 -45 -16 0
-16 -2 -1 -25 15 -23 17 -24 40 -8 14 9 32 17 42 18 31 3 69 23 76 40 3 9 6
30 6 46 0 16 6 29 13 30 12 1 -28 16 -48 18 -6 1 -20 -6 -32 -14z"/>
<path d="M2210 3771 c0 -6 4 -13 10 -16 6 -3 7 1 4 9 -7 18 -14 21 -14 7z"/>
<path d="M7371 3746 c-47 -39 -56 -41 -98 -25 -93 36 -192 -10 -215 -99 -7
-29 -14 -39 -19 -31 -12 21 -32 -40 -25 -80 6 -42 13 -49 52 -57 27 -5 31 -3
29 16 -1 12 -6 25 -11 28 -13 10 -19 50 -16 105 2 35 57 95 97 106 20 5 50 3
88 -6 69 -18 96 -12 139 25 49 45 30 61 -21 18z m-313 -267 c-3 -8 -7 -3 -11
10 -4 17 -3 21 5 13 5 -5 8 -16 6 -23z"/>
<path d="M1896 3755 c4 -8 8 -15 10 -15 2 0 4 7 4 15 0 8 -4 15 -10 15 -5 0
-7 -7 -4 -15z"/>
<path d="M7448 3717 c-3 -19 -2 -25 4 -19 6 6 8 18 6 28 -3 14 -5 12 -10 -9z"/>
<path d="M1930 3710 c0 -5 5 -10 11 -10 5 0 7 5 4 10 -3 6 -8 10 -11 10 -2 0
-4 -4 -4 -10z"/>
<path d="M6595 3680 c9 -16 18 -30 21 -30 2 0 -2 14 -11 30 -9 17 -18 30 -21
30 -2 0 2 -13 11 -30z"/>
<path d="M1973 3682 c-9 -6 -1 -20 29 -48 l42 -39 -32 38 c-18 21 -30 42 -27
48 7 11 4 11 -12 1z"/>
<path d="M1360 3639 c0 -5 5 -7 10 -4 6 3 10 8 10 11 0 2 -4 4 -10 4 -5 0 -10
-5 -10 -11z"/>
<path d="M6630 3620 c6 -11 13 -20 16 -20 2 0 0 9 -6 20 -6 11 -13 20 -16 20
-2 0 0 -9 6 -20z"/>
<path d="M7286 3594 c-4 -10 0 -24 10 -35 18 -20 18 -21 -37 -92 l-21 -28 93
7 c52 3 123 10 159 14 40 4 71 3 82 -3 12 -8 31 -5 72 10 31 11 56 17 56 12 0
-13 37 -11 45 2 5 6 11 4 19 -7 17 -23 115 -14 181 17 28 13 54 22 58 21 12
-4 119 49 112 56 -3 3 -11 0 -17 -6 -15 -15 -31 -16 -22 -1 10 16 -29 -6 -46
-25 -7 -9 -17 -16 -23 -16 -5 0 -3 8 6 18 33 36 11 46 -24 11 l-21 -21 7 23
c7 21 6 22 -40 16 -34 -5 -62 -2 -98 11 -38 13 -51 14 -54 5 -7 -19 -23 -16
-23 5 -1 16 -2 16 -15 -2 -7 -10 -20 -16 -27 -14 -7 3 -31 -2 -53 -9 -64 -24
-231 -20 -302 7 -32 12 -61 26 -64 32 -4 5 -9 2 -13 -8z"/>
<path d="M2050 3586 c0 -2 8 -10 18 -17 15 -13 16 -12 3 4 -13 16 -21 21 -21
13z"/>
<path d="M6663 3565 c9 -16 23 -39 32 -50 9 -11 7 -2 -6 20 -27 49 -47 72 -26
30z"/>
<path d="M1287 3563 c-4 -3 -7 -11 -7 -17 0 -6 5 -5 12 2 6 6 9 14 7 17 -3 3
-9 2 -12 -2z"/>
<path d="M9197 3523 c-14 -13 -6 -24 15 -21 27 4 36 28 11 28 -11 0 -23 -3
-26 -7z"/>
<path d="M488 3223 c7 -3 16 -2 19 1 4 3 -2 6 -13 5 -11 0 -14 -3 -6 -6z"/>
<path d="M8261 3066 c-8 -9 -10 -27 -6 -49 7 -33 8 -35 63 -40 32 -3 68 -9 80
-13 21 -6 23 -4 21 18 -2 14 4 33 15 43 18 19 18 18 11 -5 -4 -14 -4 -22 0
-18 8 7 45 -27 45 -42 0 -5 5 -10 10 -10 6 0 10 -6 10 -14 0 -21 53 -37 132
-38 15 -1 25 -4 23 -8 -2 -4 8 -7 23 -6 28 1 42 29 21 41 -5 4 -7 11 -4 16 4
5 -1 9 -10 9 -8 0 -18 7 -21 15 -4 8 -10 12 -15 9 -5 -3 -9 -1 -9 3 0 14 -58
32 -90 28 -17 -2 -30 1 -30 7 0 7 -5 6 -15 -2 -12 -10 -16 -8 -25 15 -5 14
-14 23 -20 20 -5 -3 -10 1 -10 9 0 22 -16 20 -33 -4 -12 -17 -16 -18 -26 -6
-6 8 -28 17 -49 21 -20 3 -46 9 -58 11 -11 3 -26 -1 -33 -10z"/>
<path d="M1116 2955 c4 -8 8 -15 10 -15 2 0 4 7 4 15 0 8 -4 15 -10 15 -5 0
-7 -7 -4 -15z"/>
<path d="M6896 2853 c-6 -14 -5 -15 5 -6 7 7 10 15 7 18 -3 3 -9 -2 -12 -12z"/>
<path d="M6885 2801 c-5 -24 -12 -31 -31 -31 -15 0 -24 6 -24 16 0 13 -6 15
-27 9 -39 -9 -53 -34 -50 -84 2 -42 4 -45 36 -54 25 -6 31 -11 22 -20 -6 -6
-11 -19 -11 -30 0 -10 -4 -16 -8 -13 -4 2 -14 1 -22 -4 -12 -7 -12 -12 3 -28
16 -18 16 -22 -3 -78 -11 -32 -23 -71 -25 -86 l-5 -28 36 17 c32 16 38 16 62
3 14 -9 37 -38 50 -65 69 -146 100 -202 125 -227 31 -31 44 -29 87 17 38 41
76 58 100 45 18 -10 20 -8 20 27 -1 21 -9 99 -19 173 -17 134 -18 136 -72 225
-66 107 -80 114 -157 73 -61 -33 -65 -33 -86 -12 -20 20 -20 68 0 128 9 26 14
49 11 52 -3 3 -8 -8 -12 -25z"/>
<path d="M2811 2524 c0 -11 3 -14 6 -6 3 7 2 16 -1 19 -3 4 -6 -2 -5 -13z"/>
<path d="M2811 2454 c0 -11 3 -14 6 -6 3 7 2 16 -1 19 -3 4 -6 -2 -5 -13z"/>
<path d="M2846 2435 c-3 -9 -6 -22 -5 -28 0 -7 5 -1 10 12 5 13 8 26 5 28 -2
2 -6 -3 -10 -12z"/>
<path d="M1856 2287 c3 -10 9 -15 12 -12 3 3 0 11 -7 18 -10 9 -11 8 -5 -6z"/>
<path d="M7336 2131 c2 -38 2 -38 20 -13 16 24 14 34 -9 38 -8 1 -12 -8 -11
-25z"/>
<path d="M7387 2115 c-3 -7 -3 -15 0 -18 7 -7 33 3 33 13 0 14 -28 19 -33 5z"/>
<path d="M7310 2071 c-23 -7 -22 -8 13 -15 20 -4 42 -4 47 -1 6 4 24 -8 41
-25 17 -17 29 -24 26 -15 -4 8 -2 15 3 15 6 0 10 6 10 14 0 8 -16 16 -43 19
-24 3 -49 8 -57 11 -8 2 -26 1 -40 -3z"/>
<path d="M1590 2060 c0 -4 11 -10 25 -12 14 -3 25 -2 25 2 0 4 -11 10 -25 12
-14 3 -25 2 -25 -2z"/>
<path d="M7465 2050 c3 -5 13 -10 21 -10 17 0 18 -12 3 -27 -17 -17 11 -21 51
-7 l35 12 -30 7 c-16 5 -39 14 -50 21 -23 16 -39 18 -30 4z"/>
<path d="M1655 2040 c3 -5 13 -10 21 -10 8 0 12 5 9 10 -3 6 -13 10 -21 10 -8
0 -12 -4 -9 -10z"/>
<path d="M1717 2016 c25 -18 70 -38 98 -43 26 -4 66 -24 85 -42 18 -17 26 1
11 26 -6 11 -11 13 -11 5 0 -7 -4 -11 -10 -7 -5 3 -7 12 -3 20 4 11 -3 15 -25
15 -16 0 -47 6 -68 13 -22 8 -52 17 -69 21 -29 7 -29 7 -8 -8z"/>
<path d="M3528 1990 c-3 -17 -1 -33 4 -36 4 -3 8 11 8 30 0 44 -6 47 -12 6z"/>
<path d="M3511 1614 c0 -11 3 -14 6 -6 3 7 2 16 -1 19 -3 4 -6 -2 -5 -13z"/>
<path d="M4670 1590 c0 -5 5 -10 10 -10 6 0 10 5 10 10 0 6 -4 10 -10 10 -5 0
-10 -4 -10 -10z"/>
<path d="M4670 1569 c0 -2 -4 -19 -9 -37 -6 -20 -6 -30 0 -27 5 4 9 -5 9 -19
0 -14 -4 -28 -10 -31 -5 -3 -10 -1 -10 4 0 6 -4 11 -10 11 -5 0 -6 -7 -3 -17
5 -11 3 -14 -6 -8 -10 6 -12 -2 -6 -36 6 -36 17 -54 61 -96 30 -28 54 -59 54
-68 0 -9 5 -13 10 -10 6 3 10 1 10 -4 0 -21 21 -10 40 21 12 21 17 42 13 62
-19 110 -34 171 -42 174 -5 2 -8 14 -5 27 2 13 -1 27 -7 31 -8 4 -9 3 -5 -4
10 -17 -5 -15 -18 2 -10 13 -66 34 -66 25z m24 -131 c-5 -8 11 -12 30 -9 5 1
3 -5 -4 -14 -7 -8 -13 -14 -14 -13 -1 2 -9 12 -19 24 -14 17 -14 21 -2 21 8 0
12 -4 9 -9z m66 -38 c0 -4 9 -17 20 -30 23 -27 27 -48 5 -30 -8 7 -15 9 -15 4
0 -4 -11 3 -24 15 -26 24 -26 48 -1 48 8 0 15 -3 15 -7z m-51 -52 c25 -15 55
-28 68 -28 14 0 23 -6 23 -15 0 -8 -2 -15 -5 -15 -20 0 -155 81 -155 93 0 9 1
8 69 -35z"/>
<path d="M4730 1385 c0 -2 7 -8 15 -15 12 -10 15 -10 15 2 0 8 -7 15 -15 15
-8 0 -15 -1 -15 -2z"/>
<path d="M4842 1380 c0 -14 2 -19 5 -12 2 6 2 18 0 25 -3 6 -5 1 -5 -13z"/>
<path d="M1403 1335 c-55 -10 -87 -23 -133 -55 -69 -47 -74 -63 -9 -30 23 12
85 38 138 57 133 48 133 51 4 28z"/>
<path d="M2228 374 c-4 -3 -2 -20 3 -37 15 -54 10 -92 -26 -203 -39 -119 -41
-134 -20 -134 8 0 15 7 15 15 0 8 4 15 8 15 32 0 76 284 52 330 -11 20 -22 25
-32 14z"/>
</g>
</svg>
