<?xml version="1.0" encoding="UTF-8"?>
<svg version="1.1" viewBox="0 0 2048 1015" width="242" height="120" xmlns="http://www.w3.org/2000/svg">
<path transform="translate(500,25)" d="m0 0h30l33 3 31 5 34 8 26 8 27 10 18 8 16 8 21 12 21 14 14 10 14 11 11 9 15 14 19 19 7 8 9 11 12 15 12 17 13 21 12 22 8 16 10 23 10 28 7 25 7 33 6 42 1 10v29l-3 33v16l3 5 12 5 16 9 12 11 10 6 7 1 10-2 9 1 2 3-1 20 4 11 7 11 8 13 9 16 7 16 8 24 3 26 1 15v60l-3 29-4 17-6 17-9 20-10 18-12 17-9 11-12 14-8 8-11 9-13 11-17 11-18 10-17 8-21 7-23 6-19 2h-36v9l-3 7-7-1-4-5-1-5 2-3-9-1-20-1-12-2-10-3-23-7-18-8-19-10-16-10-14-11-21-18-9-11-13-18-4-4-8-1-37 7-28 3-18 1h-36l-36-3-23-4-29-6-32-10-32-12-21-9-8 1-21 8-37 12-41 14-45 15-79 27-17 5h-9l-8-5-7-10-4-8 1-9 16-49 12-37 12-36 32-97 4-12 3-10-3-10-14-32-7-21-8-29-6-29-4-28-3-41v-35l5-37 5-28 10-37 12-32 12-27 10-20 15-24 10-14 13-17 13-16 12-14 27-27 22-18 14-10 30-20 21-12 25-12 26-10 26-8 37-9 36-7 22-2z" fill="#896AFC"/>
<path transform="translate(1e3 576)" d="m0 0 3 1 1 3v20l-2 19h8l1-10 4-27 5 2 1-3 6 10 10 16 9 16 7 16 8 24 3 26 1 15v60l-3 29-4 17-6 17-9 20-10 18-12 17-9 11-12 14-8 8-11 9-13 11-17 11-18 10-17 8-21 7-23 6-19 2h-36v9l-3 7-7-1-4-5-1-5 2-3-9-1-20-1-12-2-10-3-23-7-18-8-19-10-16-10-14-11-21-18-9-11-13-18-3-4 12-5 34-12 23-10 20-9 9-5-1-8-4-20-1-7v-21l3-15 6-14 10-16 14-15 12-12 4 2 2 4-1 5-11 8-10 11-7 10-6 12-3 12-1 6v25l4 23 1 3 23-14 11-8 21-16 11-9 5-4 6 1 9 7 15 8 15 5 11 2h38l12-2 10-4 16-10 15-13 4-3 4-7 5-7h2l1-5 6-14 3-11 2-18v-17l-3-17-6-16-8-14-5-7-1-7 2-3h2v-2l8-7 31-31 7-8z" fill="#FA98DB"/>
<path transform="translate(1214,40)" d="m0 0h50l14 2 16 5 14 7 12 11 7 8 8 14 6 15 4 17 2 17v16l-3 23-6 23-5 13-9 16-9 12-9 10-7 7-13 10 2 6 20 39 12 22 18 35 4 8v5l-9 8-18 12-17 11-22 14-10 5-4-2-8-13-17-36-13-25-14-24-13-24-1-3h-7l-27 9v31l-1 52-1 21-2 6-3 2-5 1h-72l-7-2-3-6v-21l5-67 3-49 5-72 4-61 6-87 3-5 10-3 59-8zm19 83-22 3-30 6-5 2-1 1-8 79v3l8-1 28-8 12-5 10-6 9-7 8-11 8-16 3-10 1-10-2-10-4-7-7-3z" fill="#6827DE"/>
<path transform="translate(1603,37)" d="m0 0h36l2 3v52l-1 27-2 4-12 3-59 7-95 10 1 10-2 32-1 5 58-4 40-2h30l2 6 1 20v32l-1 19-6 3-36 5-61 8-25 3-3 1-4 36-1 12 6-1 80-3 47-1h25l4 3 1 4v77l-2 7-9 2-46 3-79 4-89 5-29 1-4-1-1-2-1-9v-44l2-78 2-59 4-61 6-79 5-42 2-6 1-1 9-1 110-6zm-16 164-1 3 2 5 8-1 3-2v-2l-6-3zm-129 46-5 12-3 7 1 7h2l1-9 5-8 4-2-1-5z" fill="#6827DE"/>
<path transform="translate(805,483)" d="m0 0h30l25 3 26 6 21 6 21 8 6 3 5 14v9l-10 45-9 27-2 3 3 3-5-1-6-3-19-4-8-1h-30l-10 2-19 8-14 8-13 12-9 11-10 18-8 20-2 20v11l7 26 11 23 7 9 9 9-6 4-9 8-32 24-23 14-4 2-5-27v-25l3-15 5-12 10-14 12-13 9-6-1-7-4-2-20 20-9 12-8 14-5 13-2 12v21l3 18 3 12v5l-8 5-17 8-28 12-34 12-2 1h-14l-4-4-3-10-10-16-10-22-6-18-6-28-3-21-1-18v-14l2-30 3-18 6-20 10-25 8-16 8-14 11-16 13-16 12-13 16-15 14-11 21-14 22-12 21-8 20-6 15-3 18-2z" fill="#6827DE"/>
<path transform="translate(1804,40)" d="m0 0h26l16 3 15 6 12 7 16 13 11 14 10 19 7 21 3 16 2 20v17l-3 24-5 17-10 21-12 17-11 12-8 7-15 10-22 10-22 8-29 8-39 8-4 2-3 84-1 19-2 5-3 1h-82l-4-4-1-4v-18l2-33 2-65 7-143 4-83 1-9 2-3 24-6 67-14 30-5zm-5 87-45 8-3 3-5 81v9l10-1 20-5 18-7 14-8 9-7 6-7 4-9 2-10v-12l-3-14-5-10-6-7-7-4zm-124 195-3 8-5 20-6 32-2 19v12l4 4 3 1h9l1-2 1-55-1-39z" fill="#6827DE"/>
<path transform="translate(461,286)" d="m0 0 86 1 26 1 9 2 1 33 1 61 6 1 79 1 10 1 2 2 1 7v99l-1 11-9 1-28 1h-61v61l-1 34-1 3-3 1h-112l-6-3-3-96h-90l-5-2-2-12v-76l1-28 1-6 9-1 86-2 1-11 1-51 1-30z" fill="#A4BAFD"/>
<path transform="translate(1762,505)" d="m0 0h32l11 2 10 5 10 9 7 10 4 10 3 13v21l-4 20-7 16-10 14-7 8h-2l-1 3-4 4 12 23 9 16 8 16 3 8v5l-9 6-11 6-16 11-4 2h-6l-4-5-19-38-13-23-4-5-4-2-6 1-6 4-2 6-1 12-1 44-4 4-11 1h-35l-4-4v-16l4-65 5-79 4-51 3-3 26-4 32-4zm9 49-23 3-7 3-3 9-3 22v18l13-2 12-5 11-7 7-8 6-12 1-4v-8l-3-7-6-2z" fill="#6828DE"/>
<path transform="translate(2e3 503)" d="m0 0h12l2 2v21l-1 25-4 4-23 3-66 7-6 1v27l52-3h21l1 5 1 24v16l-3 2-67 9-8 1v27h14l56-2h23l1 2v50l-6 2-24 2-106 6h-15l-1-2v-55l1-44 3-48 5-63 2-12 1-1 82-4zm-96 126-3 4v5l2 1 1-2 1 3h-2v2l3-1 2-6v-5z" fill="#6828DE"/>
<path transform="translate(1581,505)" d="m0 0h27l8 3 6 5 7 11 9 27 9 43 9 50 9 54 4 29v6l-7 1h-51l-4-4-3-42-41 8-8 3-4 10-5 20-2 3-10 1h-25l-23-1-2-2 1-11 8-30 16-52 17-47 18-45 10-23 5-10 4-4 10-2zm2 85-2 3-2 17-6 26v4l2 1 16-1 3-2v-10l-4-28-3-9zm-15 18-6 16-5 16h4l8-24 1-8zm65 68-3 9-2 12 5 6 7 6 6 9 3 1v-8l-9-32-3-3z" fill="#6828DE"/>
<path transform="translate(1406,502)" d="m0 0 17 1 18 4 10 5 10 9 6 7 6 13 3 9 1 6v20l-4 17-3 6-3 2-52-1-2-1v-9l6-25v-11l-2-4-7-1-7 3-7 7-9 17-7 19-5 26-1 9v20l4 21 4 8 6 4h13l10-5 8-7 8-12 7-12 3-5 5-3 9 6 19 19-1 4-8 16-10 15-9 10-10 9-11 7-19 7-15 2h-9l-15-2-13-5-8-6-9-8-10-15-8-19-4-16-1-8v-34l3-21 5-16 6-16 10-18 10-14 9-10 5-5 8-7 14-7 9-3z" fill="#6828DE"/>
<path transform="translate(911,626)" d="m0 0h10l14 10 11 11 9 16 7 20 2 11v13l-2 14-5 16-3 7h-2l-1 5h-2v3h-2v3h-2l-2 5-8 7-4 5-3 1-5 5-8 5-14 6-23 5-11-1-19-4-20-8-9-7-7-5 1-4 15-15 7-8 12-15 10-14 2-3-10-2-15-5-2-2v-3l-6-2 3-1 32 6 6-1 6-8 9-14 6-11 9-16 9-17 4-7z" fill="#FA98DB"/>
<path transform="translate(852,615)" d="m0 0h26l18 3 14 4 1 2-5 12-12 23-8 13-8 14-9 13-4 3-10-1-26-5 3 2 2 4 25 8-2 4-10 14-8 10-9 10-7 8-8 9-4 1-9-11-7-9-6-13-3-13-1-8v-30l2-10 5-13 9-13 11-11 12-9 14-7z" fill="#6827DE"/>
<path transform="translate(1011,548)" d="m0 0 9 1 2 3-1 20 2 7v5l-4-1-6 36-5 1-3-1 1-19v-20l-1-3-4 2-15 16-29 29h-2v2h-2l-1 6 3 7 9 14 6 14 4 15 1 8v17l-2 18-4 14-7 16h-2l-2 5-5 6-2 4-11 9-9 8-19 11-10 3-8 1h-38l-15-3-15-6-14-8-8-6-6-4-9-9-8-14-7-15-7-26v-11l2-20 8-20 10-18 9-11 9-9 10-7 15-8 16-6 7-1h30l18 3 12 3 21 11 8 3 3 1 2-4 8-7 30-30 8-10 1-2-5 2v-2h-24l-9-3 1-5 2-2 17-3 5-2 15-2zm-159 67-17 5-11 6-9 7-10 9-8 9-6 11-5 13-1 7v30l3 18 5 12 7 11 10 11 2 5 9 7 7 5 20 8 25 5 8-1 20-4 16-7 10-7 1-2 5-3 7-8 5-5v-2h2v-3h2v-3h2l1-5h2l6-15 3-13 1-9v-13l-3-14-7-19-9-15-12-12-12-8h-10v-3l-7-3-18-4-8-1z" fill="#2691F2"/>
<path transform="translate(942,517)" d="m0 0 16 7 15 9 11 10 10 6 4 2-6 2-11 1-8 3-14 2-2 2v4l8 2h21l3 1v2l5-2-2 5-15 16-28 28-2 1-2 4-4-2-11-4-9-5v-2l-4-2 4-9 7-21 10-45z" fill="#FA98DB"/>
<path transform="translate(786,690)" d="m0 0 34 2 13 2 22 5v1l-9-1-18-3 4 2 2 4 25 8-2 4-10 14-8 10-9 10-7 8-8 9-4 1-9-11-7-9-6-13-3-13-1-8v-21z" fill="#6828DE"/>
<path transform="translate(1011,548)" d="m0 0 9 1 2 3-1 20 2 7v5l-4-1-6 36-5 1-3-1 1-19v-20l-1-3-4 2-15 16-29 29h-2v2h-2l-2 4-4-2-3-3 2-7 10-9 29-29 8-10 1-2-5 2v-2h-24l-9-3 1-5 2-2 17-3 5-2 15-2z" fill="#5520BA"/>
<path transform="translate(813,895)" d="m0 0h5l1 41 1 2h20l13 1 5 3-1 4-3 3-3 1h-30l-1 2v36l-3 7-7-1-4-5-1-5 2-3-5-2v-2l6-3v-10l-1-7-7-5-21-3-8-3 1-7 6-1h26l2-1 1-4 2-36z" fill="#531FB8"/>
<path transform="translate(1449,234)" d="m0 0h7l3 2v2l5 1 3 4 1 5 4 8v6l-5 5-3 4h-2v2l-2 1-5 12-1 1v6l-3 4-4-1-1-4-3-1-3-4-1-10v-11l3-8 2-11 2-5 2-7zm9 13-5 12-3 7 1 7h2l1-9 5-8 4-2-1-5z" fill="#773BE4"/>
<path transform="translate(1592,184)" d="m0 0h6l2 6v17l-2-1 1-2-6-2h-6l1 6 3 1-1 28-1 10h-3l-1-4h-2l-3-26v-8l3-16 4-1v-2l5-2z" fill="#783EE5"/>
<path transform="translate(786,690)" d="m0 0 34 2 13 2 22 5v1l-9-1-18-3 4 2 2 4 10 3-4 1-16-3-17-1-10 2-10-1-2 2v-14z" fill="#896AFD"/>
<path transform="translate(1497,74)" d="m0 0 5 1 2 5v8 4l13 3 1 4-5 5h-8l-9-4-6-6-2-7 7-11h2z" fill="#773BE4"/>
<path transform="translate(1233,206)" d="m0 0 3 4 5 2 1 5h2v2l4 2 1 3 3 1 3 6v4h2l2 9-1 2-6-2-4-3-1-3-7-5 2 9-4-1-3-9 1-4h2l-3-11-2-2-1-8z" fill="#773BE4"/>
<path transform="translate(1450,242)" d="m0 0 5 1 7 3 5 5 1 2v7l-3 3-5 1-6 7h-1v-7l5-8 4-3-1-4-3-2-2 8-5 11v7h-6l-1-8 3-12 2-10z" fill="#896CFD"/>
<path transform="translate(813,765)" d="m0 0 4 5 12 8 27 9 14 2 18-1 15-3 16-7 2 1-6 4-14 6-23 5-11-1-19-4-20-8-9-7-7-5z" fill="#9EA9FD"/>
<path transform="translate(941,777)" d="m0 0 2 1-8 8-17 12-16 6-4 1h-33l-19-3-15-5-13-7 2-1 15 7 14 4 7 1h38l12-2 10-4 16-10z" fill="#9DA6FD"/>
<path transform="translate(772,939)" d="m0 0h5l-4 1-1 5 27 2 6 1 5 1 1 24 2 21-4-1-3-4-1-5 2-3-5-2v-2l6-3v-10l-1-7-7-5-21-3-8-3z" fill="#6B2FE1"/>
<path transform="translate(1675,309)" d="m0 0 4 1 2 3-1 26-2 6-1 16h-1l-1-38-6 22-3-4 1-7 3-5 1-8h2l1-10z" fill="#7A44E8"/>
<path transform="translate(1795,261)" d="m0 0 6 5 2 6 4 9 3 11-1 1h-5l-6-2-2-6-2-16z" fill="#763AE3"/>
<path transform="translate(861,597)" d="m0 0h28l10 2h9l4 1v2l3-1v2h4l1-2-1 5v2l2 2-5-1-6-3-19-4-8-1-30-1v-1z" fill="#7D4BEB"/>
<path transform="translate(1229,193)" d="m0 0v3l2 1v2l3-3v-2l4 2 1 3v3l1 3h2l3 5-1 4-1 2h2l-1 3v-2h-2l-1-5-6-2-2-3 1 8 2 2 3 11-1 3-4-9-4-14-1-5 1-2h-2v-3l-4-1z" fill="#773CE5"/>
<path transform="translate(928,632)" d="m0 0 5 2 13 13 9 16 7 20 2 11v13l-2 14-5 16-1-3 2-7 1-15 2-9v-10l-4-18-6-14-7-12-12-13z" fill="#A3B8FD"/>
<path transform="translate(787,673)" d="m0 0h1v9l3 1-1 5-1 1h12l27 2 32 7 8 1-3 3-10-1v-2l-12-2-14-3-25-2-19-1v-9z" fill="#773BE4"/>
<path transform="translate(1233,206)" d="m0 0 3 4 5 2 1 5h2l4 9 1 4 2 2v3l-7-1-3-3-1-4-3-1-2-9-2-2-1-8z" fill="#896AFD"/>
<path transform="translate(786,702)" d="m0 0 11 1h6l-5 5-7 6h-2v7l5 9-1 2-5-2-3-18v-7z" fill="#773DE5"/>
<path transform="translate(607,855)" d="m0 0 4 2 6 7 1 4-1 3 10-3 1-1h6l6 2-3 2-7 3h-14l-4-4-3-10z" fill="#783EE5"/>
<path transform="translate(1409,392)" d="m0 0h2v2h2v3l6-2 3 2v7h-2l1 3-2 6-4-1-2-1 1-8-3-1-1-4-3-2v-3z" fill="#773BE4"/>
<path transform="translate(1840,180)" d="m0 0 3 1 2 5h3l2 5-1 8-1 3-4-1v-4l-4-2-1-9z" fill="#773BE4"/>
<path transform="translate(1258,183)" d="m0 0h5l1 7-4 1-1 3-5 1-4-1-2-5 3-1-1-3z" fill="#763AE3"/>
<path transform="translate(1428,388)" d="m0 0 7 2 3 9-2 6-7 1-1-2z" fill="#773BE4"/>
<path transform="translate(1346,569)" d="m0 0h5l-1 6-3 7-2 5-3 1-2-1 1-7 1-2v-4l-2-1z" fill="#763AE3"/>
<path transform="translate(984,564)" d="m0 0h7l5 1-1 6-7 8-2 1 2-4 5-6 1-2-5 2v-2h-24l-8-2v-1h24z" fill="#8663F9"/>
<path transform="translate(1473,208)" d="m0 0 7 3 2 4-3 7-3 1-4-4-2-5z" fill="#773BE4"/>
<path transform="translate(1609,529)" d="m0 0 6 4v2h2l2 5-9 1-5-5 1-5h3z" fill="#773BE4"/>
<path transform="translate(957,560)" d="m0 0 1 2-1 2 28-2 11 1 2 1-1 5-2 1 1-5-4 1-1-1h-7l-3 1h-16l-9-1z" fill="#6828DE"/>
<path transform="translate(1531,40)" d="m0 0 4 2v2l-9-1-4 1h-24v-2l10-1z" fill="#5622BC"/>
<path transform="translate(1595,189)" d="m0 0h3l1 12-1 1h-5l-3-6 2-5z" fill="#6828DE"/>
<path transform="translate(1496,389)" d="m0 0 7 1 1 8-12-1 1-6z" fill="#8D76FD"/>
<path transform="translate(1947,591)" d="m0 0h14l-2 2-6 2-11 1-9-1-1-2 3-1z" fill="#5622BD"/>
<path transform="translate(1797,275)" d="m0 0 5 5v2l3 3-1 5h-5l-3-5v-9z" fill="#896AFD"/>
<path transform="translate(787,673)" d="m0 0h1v9l3 1-1 5-1 1h12l3 2h-19v-9z" fill="#753AE4"/>
<path transform="translate(1546,185)" d="m0 0h21l2 1v2l-9-1-16 2h-7l1-3z" fill="#5622BC"/>
<path transform="translate(809,902)" d="m0 0h1v33l-2 5-4-2 2-1 1-4 1-23z" fill="#7847ED"/>
<path transform="translate(928,632)" d="m0 0 5 2 13 13 9 16 1 4-3-1-7-14-9-11-9-8z" fill="#A2B4FD"/>
<path transform="translate(1685,245)" d="m0 0h2l2 11v5l-5-1-1-2v-9z" fill="#8F7CFD"/>
<path transform="translate(1121,187)" d="m0 0 3 3-1 11-5-1-1-6 3-6z" fill="#8C73FD"/>
<path transform="translate(838,947)" d="m0 0h18l-2 2-3 1h-30l-2 2 1-4z" fill="#733DE8"/>
<path transform="translate(1447,399)" d="m0 0h5l3 2 4-1v2l-4 1v2l-2 1h-6l-3-2v-2z" fill="#783FE6"/>
<path transform="translate(1075,294)" d="m0 0h1l1 21-2 19-2 4 1-26z" fill="#7D4DEC"/>
<path transform="translate(934,510)" d="m0 0 5 1v2h2l1 8-2 7h-1l-4-14z" fill="#7C48EA"/>
<path transform="translate(779,948)" d="m0 0h9l11 1 9 4 1 2v9h-1l-1-7-7-5-21-3z" fill="#896AFD"/>
<path transform="translate(1432,391)" d="m0 0h2l1 3v10l-5 1 1-13z" fill="#896AFD"/>
<path transform="translate(1248,263)" d="m0 0h5v2l4 2v5h-5l-3-3z" fill="#773BE4"/>
<path transform="translate(1500,211)" d="m0 0 2 1 1 6 1 9h-4l-1-2v-11z" fill="#896AFD"/>
<path transform="translate(1672,328)" d="m0 0 1 2-4 15-3-4 1-7z" fill="#7C48E9"/>
<path transform="translate(1416,403)" d="m0 0 4 4-1 6-4-1-2-1 1-5z" fill="#896AFD"/>
<path transform="translate(810,982)" d="m0 0 2 4 1 8-4-1-3-5z" fill="#F899DC"/>
<path transform="translate(1850,167)" d="m0 0 4 2 3 3v5l-6-2-1-2v-4z" fill="#773BE4"/>
<path transform="translate(1499,79)" d="m0 0h3l1 5v4l-4-1-2-1 1-5z" fill="#896AFD"/>
<path transform="translate(941,777)" d="m0 0 2 1-8 8-8 6-3-1 15-12z" fill="#9A9DFD"/>
<path transform="translate(861,597)" d="m0 0h13l1 2-11 1h-11v-1z" fill="#773BE4"/>
<path transform="translate(1306,364)" d="m0 0 5 2 1 3-1 2-6-1v-4z" fill="#773BE4"/>
<path transform="translate(1141,48)" d="m0 0 2 1-4 2-7 2h-3-3l-1-3z" fill="#A485F1"/>
<path transform="translate(1007,571)" d="m0 0h1v24h-1l-1-15-2-5z" fill="#7039E6"/>
<path transform="translate(787,721)" d="m0 0h2l5 9-1 2-5-2z" fill="#783EE6"/>
<path transform="translate(962,603)" d="m0 0v3l-15 15-1-3 10-9z" fill="#6026CF"/>
<path transform="translate(808,974)" d="m0 0 2 3-1 5h-3l1-1-5-2v-2z" fill="#9561EA"/>
<path transform="translate(855,698)" d="m0 0 13 1-3 3-10-1z" fill="#7E4FEF"/>
<path transform="translate(1232,215)" d="m0 0 4 2 3 11-1 3-4-9z" fill="#7438E3"/>
<path transform="translate(1338,374)" d="m0 0h3v3h-2v3l-6 2 2-6z" fill="#5420B9"/>
<path transform="translate(1255,236)" d="m0 0 2 1 2 7-1 2-4-2-1-5h2z" fill="#896AFD"/>
<path transform="translate(760,704)" d="m0 0 2 3 2 6v6h-3l1-5-3-5-2-2z" fill="#8766FB"/>
<path transform="translate(1499,207)" d="m0 0 3 1 1 2v8l-2-2-1-5-1 3-1-6z" fill="#773CE4"/>
<path transform="translate(1598,189)" d="m0 0 2 1v17l-2-1 1-2-3-1 2-2z" fill="#8053EE"/>
<path transform="translate(947,653)" d="m0 0 3 1 6 12h-3z" fill="#9EA8FD"/>
<path transform="translate(1528,186)" d="m0 0h10l-1 2-8 1-6-1v-1z" fill="#602ECA"/>
</svg>
